<svg width="174" height="40" viewBox="0 0 174 40" fill="none" xmlns="http://www.w3.org/2000/svg">
<line x1="120" y1="21.5" x2="174" y2="21.5" stroke="#0A4DFA" stroke-width="3"/>
<path d="M3.78 14.94V19.02H8.58V20.88H3.78V25.14H9.18V27H1.5V13.08H9.18V14.94H3.78ZM12.0283 21.44C12.0283 20.3333 12.2549 19.3533 12.7083 18.5C13.1749 17.6467 13.8016 16.9867 14.5883 16.52C15.3883 16.04 16.2749 15.8 17.2483 15.8C17.9683 15.8 18.6749 15.96 19.3683 16.28C20.0749 16.5867 20.6349 17 21.0483 17.52V12.2H23.3483V27H21.0483V25.34C20.6749 25.8733 20.1549 26.3133 19.4883 26.66C18.8349 27.0067 18.0816 27.18 17.2283 27.18C16.2683 27.18 15.3883 26.94 14.5883 26.46C13.8016 25.9667 13.1749 25.2867 12.7083 24.42C12.2549 23.54 12.0283 22.5467 12.0283 21.44ZM21.0483 21.48C21.0483 20.72 20.8883 20.06 20.5683 19.5C20.2616 18.94 19.8549 18.5133 19.3483 18.22C18.8416 17.9267 18.2949 17.78 17.7083 17.78C17.1216 17.78 16.5749 17.9267 16.0683 18.22C15.5616 18.5 15.1483 18.92 14.8283 19.48C14.5216 20.0267 14.3683 20.68 14.3683 21.44C14.3683 22.2 14.5216 22.8667 14.8283 23.44C15.1483 24.0133 15.5616 24.4533 16.0683 24.76C16.5883 25.0533 17.1349 25.2 17.7083 25.2C18.2949 25.2 18.8416 25.0533 19.3483 24.76C19.8549 24.4667 20.2616 24.04 20.5683 23.48C20.8883 22.9067 21.0483 22.24 21.0483 21.48ZM37.123 15.98V27H34.843V25.7C34.483 26.1533 34.0096 26.5133 33.423 26.78C32.8496 27.0333 32.2363 27.16 31.583 27.16C30.7163 27.16 29.9363 26.98 29.243 26.62C28.563 26.26 28.023 25.7267 27.623 25.02C27.2363 24.3133 27.043 23.46 27.043 22.46V15.98H29.303V22.12C29.303 23.1067 29.5496 23.8667 30.043 24.4C30.5363 24.92 31.2096 25.18 32.063 25.18C32.9163 25.18 33.5896 24.92 34.083 24.4C34.5896 23.8667 34.843 23.1067 34.843 22.12V15.98H37.123ZM40.1713 21.48C40.1713 20.3467 40.3979 19.3533 40.8513 18.5C41.3179 17.6333 41.9579 16.9667 42.7713 16.5C43.5846 16.0333 44.5179 15.8 45.5713 15.8C46.9046 15.8 48.0046 16.12 48.8713 16.76C49.7513 17.3867 50.3446 18.2867 50.6513 19.46H48.1913C47.9913 18.9133 47.6713 18.4867 47.2313 18.18C46.7913 17.8733 46.2379 17.72 45.5713 17.72C44.6379 17.72 43.8913 18.0533 43.3313 18.72C42.7846 19.3733 42.5113 20.2933 42.5113 21.48C42.5113 22.6667 42.7846 23.5933 43.3313 24.26C43.8913 24.9267 44.6379 25.26 45.5713 25.26C46.8913 25.26 47.7646 24.68 48.1913 23.52H50.6513C50.3313 24.64 49.7313 25.5333 48.8513 26.2C47.9713 26.8533 46.8779 27.18 45.5713 27.18C44.5179 27.18 43.5846 26.9467 42.7713 26.48C41.9579 26 41.3179 25.3333 40.8513 24.48C40.3979 23.6133 40.1713 22.6133 40.1713 21.48ZM52.9634 21.44C52.9634 20.3333 53.1901 19.3533 53.6434 18.5C54.1101 17.6467 54.7368 16.9867 55.5234 16.52C56.3234 16.04 57.2034 15.8 58.1634 15.8C59.0301 15.8 59.7834 15.9733 60.4234 16.32C61.0768 16.6533 61.5968 17.0733 61.9834 17.58V15.98H64.2834V27H61.9834V25.36C61.5968 25.88 61.0701 26.3133 60.4034 26.66C59.7368 27.0067 58.9768 27.18 58.1234 27.18C57.1768 27.18 56.3101 26.94 55.5234 26.46C54.7368 25.9667 54.1101 25.2867 53.6434 24.42C53.1901 23.54 52.9634 22.5467 52.9634 21.44ZM61.9834 21.48C61.9834 20.72 61.8234 20.06 61.5034 19.5C61.1968 18.94 60.7901 18.5133 60.2834 18.22C59.7768 17.9267 59.2301 17.78 58.6434 17.78C58.0568 17.78 57.5101 17.9267 57.0034 18.22C56.4968 18.5 56.0834 18.92 55.7634 19.48C55.4568 20.0267 55.3034 20.68 55.3034 21.44C55.3034 22.2 55.4568 22.8667 55.7634 23.44C56.0834 24.0133 56.4968 24.4533 57.0034 24.76C57.5234 25.0533 58.0701 25.2 58.6434 25.2C59.2301 25.2 59.7768 25.0533 60.2834 24.76C60.7901 24.4667 61.1968 24.04 61.5034 23.48C61.8234 22.9067 61.9834 22.24 61.9834 21.48ZM70.7381 17.84V23.94C70.7381 24.3533 70.8315 24.6533 71.0181 24.84C71.2181 25.0133 71.5515 25.1 72.0181 25.1H73.4181V27H71.6181C70.5915 27 69.8048 26.76 69.2581 26.28C68.7115 25.8 68.4381 25.02 68.4381 23.94V17.84H67.1381V15.98H68.4381V13.24H70.7381V15.98H73.4181V17.84H70.7381ZM77.4795 14.52C77.0662 14.52 76.7195 14.38 76.4395 14.1C76.1595 13.82 76.0195 13.4733 76.0195 13.06C76.0195 12.6467 76.1595 12.3 76.4395 12.02C76.7195 11.74 77.0662 11.6 77.4795 11.6C77.8795 11.6 78.2195 11.74 78.4995 12.02C78.7795 12.3 78.9195 12.6467 78.9195 13.06C78.9195 13.4733 78.7795 13.82 78.4995 14.1C78.2195 14.38 77.8795 14.52 77.4795 14.52ZM78.5995 15.98V27H76.3195V15.98H78.5995ZM87.173 27.18C86.133 27.18 85.193 26.9467 84.353 26.48C83.513 26 82.853 25.3333 82.373 24.48C81.893 23.6133 81.653 22.6133 81.653 21.48C81.653 20.36 81.8996 19.3667 82.393 18.5C82.8863 17.6333 83.5596 16.9667 84.413 16.5C85.2663 16.0333 86.2196 15.8 87.273 15.8C88.3263 15.8 89.2796 16.0333 90.133 16.5C90.9863 16.9667 91.6596 17.6333 92.153 18.5C92.6463 19.3667 92.893 20.36 92.893 21.48C92.893 22.6 92.6396 23.5933 92.133 24.46C91.6263 25.3267 90.933 26 90.053 26.48C89.1863 26.9467 88.2263 27.18 87.173 27.18ZM87.173 25.2C87.7596 25.2 88.3063 25.06 88.813 24.78C89.333 24.5 89.753 24.08 90.073 23.52C90.393 22.96 90.553 22.28 90.553 21.48C90.553 20.68 90.3996 20.0067 90.093 19.46C89.7863 18.9 89.3796 18.48 88.873 18.2C88.3663 17.92 87.8196 17.78 87.233 17.78C86.6463 17.78 86.0996 17.92 85.593 18.2C85.0996 18.48 84.7063 18.9 84.413 19.46C84.1196 20.0067 83.973 20.68 83.973 21.48C83.973 22.6667 84.273 23.5867 84.873 24.24C85.4863 24.88 86.253 25.2 87.173 25.2ZM101.507 15.8C102.374 15.8 103.147 15.98 103.827 16.34C104.52 16.7 105.06 17.2333 105.447 17.94C105.834 18.6467 106.027 19.5 106.027 20.5V27H103.767V20.84C103.767 19.8533 103.52 19.1 103.027 18.58C102.534 18.0467 101.86 17.78 101.007 17.78C100.154 17.78 99.4735 18.0467 98.9669 18.58C98.4735 19.1 98.2269 19.8533 98.2269 20.84V27H95.9469V15.98H98.2269V17.24C98.6002 16.7867 99.0735 16.4333 99.6469 16.18C100.234 15.9267 100.854 15.8 101.507 15.8Z" fill="black"/>
</svg>
