<svg width="728" height="161" viewBox="0 0 728 161" fill="none" xmlns="http://www.w3.org/2000/svg">
<path d="M4.752 154.126C3.588 154.126 2.64 153.85 1.908 153.298C1.188 152.734 0.828 151.984 0.828 151.048C0.828 150.868 0.834 150.736 0.846 150.652H2.466C2.43 151.24 2.61 151.744 3.006 152.164C3.402 152.584 4.008 152.794 4.824 152.794C5.64 152.794 6.288 152.608 6.768 152.236C7.248 151.864 7.488 151.342 7.488 150.67C7.488 150.262 7.368 149.92 7.128 149.644C6.9 149.356 6.612 149.122 6.264 148.942C5.928 148.75 5.466 148.54 4.878 148.312C4.158 148.024 3.576 147.754 3.132 147.502C2.7 147.25 2.334 146.908 2.034 146.476C1.734 146.044 1.596 145.498 1.62 144.838C1.62 144.142 1.806 143.524 2.178 142.984C2.55 142.444 3.06 142.03 3.708 141.742C4.368 141.442 5.118 141.292 5.958 141.292C6.774 141.292 7.476 141.43 8.064 141.706C8.664 141.982 9.114 142.366 9.414 142.858C9.714 143.35 9.846 143.902 9.81 144.514H8.1C8.124 144.202 8.052 143.902 7.884 143.614C7.728 143.326 7.476 143.092 7.128 142.912C6.792 142.732 6.372 142.642 5.868 142.642C5.088 142.642 4.458 142.828 3.978 143.2C3.51 143.56 3.276 144.058 3.276 144.694C3.276 145.066 3.384 145.39 3.6 145.666C3.828 145.93 4.11 146.158 4.446 146.35C4.782 146.53 5.244 146.746 5.832 146.998C6.54 147.298 7.116 147.58 7.56 147.844C8.016 148.096 8.4 148.438 8.712 148.87C9.024 149.302 9.18 149.842 9.18 150.49C9.18 151.186 9 151.81 8.64 152.362C8.28 152.902 7.764 153.334 7.092 153.658C6.42 153.97 5.64 154.126 4.752 154.126ZM11.9166 149.05C12.0966 148.03 12.4566 147.142 12.9966 146.386C13.5486 145.618 14.2266 145.024 15.0306 144.604C15.8346 144.184 16.7046 143.974 17.6406 143.974C18.8526 143.974 19.7946 144.268 20.4666 144.856C21.1506 145.444 21.5286 146.26 21.6006 147.304H19.8366C19.7766 146.704 19.5306 146.23 19.0986 145.882C18.6786 145.534 18.1086 145.36 17.3886 145.36C16.4526 145.36 15.6366 145.684 14.9406 146.332C14.2566 146.968 13.8126 147.874 13.6086 149.05C13.5486 149.446 13.5186 149.776 13.5186 150.04C13.5186 150.916 13.7526 151.594 14.2206 152.074C14.6886 152.542 15.3126 152.776 16.0926 152.776C16.8126 152.776 17.4366 152.608 17.9646 152.272C18.5046 151.936 18.9186 151.456 19.2066 150.832H20.9706C20.5386 151.84 19.8726 152.65 18.9726 153.262C18.0726 153.862 17.0286 154.162 15.8406 154.162C14.6046 154.162 13.6206 153.808 12.8886 153.1C12.1686 152.392 11.8086 151.426 11.8086 150.202C11.8086 149.83 11.8446 149.446 11.9166 149.05ZM26.3782 146.008C26.7742 145.36 27.2722 144.856 27.8722 144.496C28.4722 144.136 29.1562 143.956 29.9242 143.956L29.6182 145.648H29.1862C28.3342 145.648 27.6202 145.876 27.0442 146.332C26.4802 146.788 26.1022 147.556 25.9102 148.636L24.9562 154H23.3182L25.0642 144.136H26.7022L26.3782 146.008ZM35.091 154.162C34.263 154.162 33.531 153.994 32.895 153.658C32.271 153.31 31.785 152.83 31.437 152.218C31.089 151.594 30.915 150.874 30.915 150.058C30.915 148.942 31.173 147.922 31.689 146.998C32.205 146.062 32.913 145.324 33.813 144.784C34.725 144.244 35.739 143.974 36.855 143.974C37.683 143.974 38.415 144.148 39.051 144.496C39.699 144.832 40.197 145.312 40.545 145.936C40.905 146.548 41.085 147.268 41.085 148.096C41.085 149.212 40.821 150.232 40.293 151.156C39.765 152.08 39.045 152.812 38.133 153.352C37.221 153.892 36.207 154.162 35.091 154.162ZM35.289 152.776C36.069 152.776 36.771 152.566 37.395 152.146C38.019 151.714 38.505 151.15 38.853 150.454C39.213 149.746 39.393 148.99 39.393 148.186C39.393 147.274 39.129 146.578 38.601 146.098C38.073 145.606 37.413 145.36 36.621 145.36C35.841 145.36 35.145 145.576 34.533 146.008C33.921 146.428 33.447 146.992 33.111 147.7C32.775 148.408 32.607 149.17 32.607 149.986C32.607 150.874 32.859 151.564 33.363 152.056C33.867 152.536 34.509 152.776 35.289 152.776ZM46.9827 140.68L44.6247 154H42.9867L45.3447 140.68H46.9827ZM52.1324 140.68L49.7744 154H48.1364L50.4944 140.68H52.1324ZM59.6194 149.032C59.7994 148.024 60.1594 147.142 60.6994 146.386C61.2514 145.618 61.9234 145.024 62.7154 144.604C63.5074 144.184 64.3474 143.974 65.2354 143.974C65.9914 143.974 66.6694 144.154 67.2694 144.514C67.8694 144.862 68.2954 145.324 68.5474 145.9L69.4654 140.68H71.1214L68.7634 154H67.1074L67.4494 152.146C67.0294 152.734 66.4654 153.22 65.7574 153.604C65.0494 153.976 64.2694 154.162 63.4174 154.162C62.6494 154.162 61.9714 154 61.3834 153.676C60.7954 153.34 60.3334 152.866 59.9974 152.254C59.6734 151.642 59.5114 150.934 59.5114 150.13C59.5114 149.77 59.5474 149.404 59.6194 149.032ZM67.9894 149.05C68.0374 148.798 68.0614 148.528 68.0614 148.24C68.0614 147.364 67.7974 146.674 67.2694 146.17C66.7534 145.654 66.0934 145.396 65.2894 145.396C64.6774 145.396 64.0894 145.54 63.5254 145.828C62.9734 146.116 62.4994 146.536 62.1034 147.088C61.7074 147.64 61.4434 148.288 61.3114 149.032C61.2634 149.284 61.2394 149.56 61.2394 149.86C61.2394 150.748 61.4974 151.45 62.0134 151.966C62.5294 152.47 63.1894 152.722 63.9934 152.722C64.6054 152.722 65.1874 152.578 65.7394 152.29C66.3034 151.99 66.7834 151.564 67.1794 151.012C67.5874 150.448 67.8574 149.794 67.9894 149.05ZM76.5894 154.162C75.7614 154.162 75.0294 153.994 74.3934 153.658C73.7694 153.31 73.2834 152.83 72.9354 152.218C72.5874 151.594 72.4134 150.874 72.4134 150.058C72.4134 148.942 72.6714 147.922 73.1874 146.998C73.7034 146.062 74.4114 145.324 75.3114 144.784C76.2234 144.244 77.2374 143.974 78.3534 143.974C79.1814 143.974 79.9134 144.148 80.5494 144.496C81.1974 144.832 81.6954 145.312 82.0434 145.936C82.4034 146.548 82.5834 147.268 82.5834 148.096C82.5834 149.212 82.3194 150.232 81.7914 151.156C81.2634 152.08 80.5434 152.812 79.6314 153.352C78.7194 153.892 77.7054 154.162 76.5894 154.162ZM76.7874 152.776C77.5674 152.776 78.2694 152.566 78.8934 152.146C79.5174 151.714 80.0034 151.15 80.3514 150.454C80.7114 149.746 80.8914 148.99 80.8914 148.186C80.8914 147.274 80.6274 146.578 80.0994 146.098C79.5714 145.606 78.9114 145.36 78.1194 145.36C77.3394 145.36 76.6434 145.576 76.0314 146.008C75.4194 146.428 74.9454 146.992 74.6094 147.7C74.2734 148.408 74.1054 149.17 74.1054 149.986C74.1054 150.874 74.3574 151.564 74.8614 152.056C75.3654 152.536 76.0074 152.776 76.7874 152.776ZM99.3711 144.136L94.5471 154H92.8551L91.8831 146.152L88.1031 154H86.4111L85.0611 144.136H86.7351L87.5451 152.416L91.4331 144.136H93.1251L94.0611 152.362L97.7511 144.136H99.3711ZM106.559 143.956C107.579 143.956 108.395 144.232 109.007 144.784C109.619 145.324 109.925 146.116 109.925 147.16C109.925 147.544 109.895 147.886 109.835 148.186L108.809 154H107.189L108.179 148.42C108.227 148.168 108.251 147.904 108.251 147.628C108.251 146.896 108.047 146.338 107.639 145.954C107.243 145.57 106.685 145.378 105.965 145.378C105.101 145.378 104.363 145.648 103.751 146.188C103.151 146.728 102.761 147.514 102.581 148.546V148.51L101.609 154H99.9707L101.717 144.136H103.355L103.103 145.558C103.511 145.042 104.021 144.646 104.633 144.37C105.245 144.094 105.887 143.956 106.559 143.956ZM120.77 151.3C120.734 151.48 120.716 151.636 120.716 151.768C120.716 152.068 120.806 152.284 120.986 152.416C121.178 152.548 121.484 152.614 121.904 152.614H123.11L122.858 154H121.382C120.602 154 120.014 153.85 119.618 153.55C119.234 153.25 119.042 152.758 119.042 152.074C119.042 151.81 119.066 151.552 119.114 151.3L120.14 145.486H118.88L119.114 144.136H120.392L120.824 141.652H122.48L122.048 144.136H124.604L124.37 145.486H121.796L120.77 151.3ZM129.9 154.162C129.072 154.162 128.34 153.994 127.704 153.658C127.08 153.31 126.594 152.83 126.246 152.218C125.898 151.594 125.724 150.874 125.724 150.058C125.724 148.942 125.982 147.922 126.498 146.998C127.014 146.062 127.722 145.324 128.622 144.784C129.534 144.244 130.548 143.974 131.664 143.974C132.492 143.974 133.224 144.148 133.86 144.496C134.508 144.832 135.006 145.312 135.354 145.936C135.714 146.548 135.894 147.268 135.894 148.096C135.894 149.212 135.63 150.232 135.102 151.156C134.574 152.08 133.854 152.812 132.942 153.352C132.03 153.892 131.016 154.162 129.9 154.162ZM130.098 152.776C130.878 152.776 131.58 152.566 132.204 152.146C132.828 151.714 133.314 151.15 133.662 150.454C134.022 149.746 134.202 148.99 134.202 148.186C134.202 147.274 133.938 146.578 133.41 146.098C132.882 145.606 132.222 145.36 131.43 145.36C130.65 145.36 129.954 145.576 129.342 146.008C128.73 146.428 128.256 146.992 127.92 147.7C127.584 148.408 127.416 149.17 127.416 149.986C127.416 150.874 127.668 151.564 128.172 152.056C128.676 152.536 129.318 152.776 130.098 152.776ZM147.351 154.162C146.319 154.162 145.473 153.916 144.813 153.424C144.153 152.932 143.823 152.272 143.823 151.444C143.823 151.288 143.829 151.174 143.841 151.102H145.443C145.395 151.618 145.545 152.038 145.893 152.362C146.253 152.686 146.769 152.848 147.441 152.848C148.113 152.848 148.653 152.722 149.061 152.47C149.481 152.206 149.691 151.84 149.691 151.372C149.691 150.976 149.523 150.664 149.187 150.436C148.851 150.208 148.335 149.962 147.639 149.698C147.027 149.47 146.523 149.254 146.127 149.05C145.731 148.846 145.395 148.564 145.119 148.204C144.843 147.832 144.705 147.364 144.705 146.8C144.705 146.248 144.861 145.756 145.173 145.324C145.497 144.892 145.941 144.562 146.505 144.334C147.081 144.094 147.735 143.974 148.467 143.974C149.475 143.974 150.303 144.226 150.951 144.73C151.599 145.234 151.923 145.894 151.923 146.71C151.923 146.866 151.917 146.986 151.905 147.07H150.339L150.357 146.854C150.357 146.374 150.171 145.996 149.799 145.72C149.439 145.432 148.959 145.288 148.359 145.288C147.771 145.288 147.285 145.42 146.901 145.684C146.529 145.948 146.343 146.302 146.343 146.746C146.343 147.166 146.517 147.496 146.865 147.736C147.213 147.976 147.753 148.24 148.485 148.528C149.097 148.768 149.589 148.99 149.961 149.194C150.333 149.386 150.651 149.656 150.915 150.004C151.179 150.352 151.311 150.79 151.311 151.318C151.311 151.894 151.137 152.398 150.789 152.83C150.453 153.262 149.985 153.592 149.385 153.82C148.785 154.048 148.107 154.162 147.351 154.162ZM160.032 143.974C160.86 143.974 161.574 144.136 162.174 144.46C162.786 144.772 163.248 145.216 163.56 145.792C163.884 146.356 164.046 147.004 164.046 147.736C164.046 147.988 164.016 148.294 163.956 148.654C163.908 148.966 163.83 149.29 163.722 149.626H155.838C155.814 149.866 155.802 150.04 155.802 150.148C155.802 150.976 156.048 151.624 156.54 152.092C157.044 152.548 157.698 152.776 158.502 152.776C159.21 152.776 159.828 152.614 160.356 152.29C160.896 151.954 161.304 151.51 161.58 150.958H163.344C162.912 151.906 162.246 152.68 161.346 153.28C160.458 153.868 159.426 154.162 158.25 154.162C157.014 154.162 156.018 153.808 155.262 153.1C154.518 152.38 154.146 151.402 154.146 150.166C154.146 149.818 154.182 149.446 154.254 149.05C154.434 148.03 154.8 147.136 155.352 146.368C155.904 145.6 156.582 145.012 157.386 144.604C158.202 144.184 159.084 143.974 160.032 143.974ZM162.3 148.438C162.336 148.198 162.354 147.976 162.354 147.772C162.354 147.004 162.108 146.41 161.616 145.99C161.136 145.57 160.506 145.36 159.726 145.36C158.886 145.36 158.124 145.636 157.44 146.188C156.756 146.728 156.294 147.478 156.054 148.438H162.3ZM171.914 143.974C172.742 143.974 173.456 144.136 174.056 144.46C174.668 144.772 175.13 145.216 175.442 145.792C175.766 146.356 175.928 147.004 175.928 147.736C175.928 147.988 175.898 148.294 175.838 148.654C175.79 148.966 175.712 149.29 175.604 149.626H167.72C167.696 149.866 167.684 150.04 167.684 150.148C167.684 150.976 167.93 151.624 168.422 152.092C168.926 152.548 169.58 152.776 170.384 152.776C171.092 152.776 171.71 152.614 172.238 152.29C172.778 151.954 173.186 151.51 173.462 150.958H175.226C174.794 151.906 174.128 152.68 173.228 153.28C172.34 153.868 171.308 154.162 170.132 154.162C168.896 154.162 167.9 153.808 167.144 153.1C166.4 152.38 166.028 151.402 166.028 150.166C166.028 149.818 166.064 149.446 166.136 149.05C166.316 148.03 166.682 147.136 167.234 146.368C167.786 145.6 168.464 145.012 169.268 144.604C170.084 144.184 170.966 143.974 171.914 143.974ZM174.182 148.438C174.218 148.198 174.236 147.976 174.236 147.772C174.236 147.004 173.99 146.41 173.498 145.99C173.018 145.57 172.388 145.36 171.608 145.36C170.768 145.36 170.006 145.636 169.322 146.188C168.638 146.728 168.176 147.478 167.936 148.438H174.182ZM197.491 143.956C198.499 143.956 199.303 144.232 199.903 144.784C200.515 145.324 200.821 146.116 200.821 147.16C200.821 147.544 200.791 147.886 200.731 148.186L199.705 154H198.085L199.075 148.42C199.123 148.168 199.147 147.898 199.147 147.61C199.147 146.878 198.949 146.326 198.553 145.954C198.169 145.57 197.623 145.378 196.915 145.378C196.099 145.378 195.397 145.63 194.809 146.134C194.233 146.626 193.837 147.34 193.621 148.276L192.595 154H190.975L191.965 148.42C192.013 148.144 192.037 147.868 192.037 147.592C192.037 146.872 191.839 146.326 191.443 145.954C191.059 145.57 190.513 145.378 189.805 145.378C188.953 145.378 188.227 145.654 187.627 146.206C187.027 146.746 186.637 147.532 186.457 148.564V148.528L185.485 154H183.847L185.593 144.136H187.231L186.979 145.558C187.387 145.042 187.891 144.646 188.491 144.37C189.091 144.094 189.721 143.956 190.381 143.956C191.209 143.956 191.905 144.142 192.469 144.514C193.045 144.886 193.423 145.432 193.603 146.152C194.011 145.456 194.563 144.916 195.259 144.532C195.967 144.148 196.711 143.956 197.491 143.956ZM205.506 144.136L207.18 152.092L211.662 144.136H213.354L204.858 158.644H203.148L205.938 153.892L203.688 144.136H205.506ZM234.942 144.136L230.118 154H228.426L227.454 146.152L223.674 154H221.982L220.632 144.136H222.306L223.116 152.416L227.004 144.136H228.696L229.632 152.362L233.322 144.136H234.942ZM239.88 154.162C239.052 154.162 238.32 153.994 237.684 153.658C237.06 153.31 236.574 152.83 236.226 152.218C235.878 151.594 235.704 150.874 235.704 150.058C235.704 148.942 235.962 147.922 236.478 146.998C236.994 146.062 237.702 145.324 238.602 144.784C239.514 144.244 240.528 143.974 241.644 143.974C242.472 143.974 243.204 144.148 243.84 144.496C244.488 144.832 244.986 145.312 245.334 145.936C245.694 146.548 245.874 147.268 245.874 148.096C245.874 149.212 245.61 150.232 245.082 151.156C244.554 152.08 243.834 152.812 242.922 153.352C242.01 153.892 240.996 154.162 239.88 154.162ZM240.078 152.776C240.858 152.776 241.56 152.566 242.184 152.146C242.808 151.714 243.294 151.15 243.642 150.454C244.002 149.746 244.182 148.99 244.182 148.186C244.182 147.274 243.918 146.578 243.39 146.098C242.862 145.606 242.202 145.36 241.41 145.36C240.63 145.36 239.934 145.576 239.322 146.008C238.71 146.428 238.236 146.992 237.9 147.7C237.564 148.408 237.396 149.17 237.396 149.986C237.396 150.874 237.648 151.564 238.152 152.056C238.656 152.536 239.298 152.776 240.078 152.776ZM250.835 146.008C251.231 145.36 251.729 144.856 252.329 144.496C252.929 144.136 253.613 143.956 254.381 143.956L254.075 145.648H253.643C252.791 145.648 252.077 145.876 251.501 146.332C250.937 146.788 250.559 147.556 250.367 148.636L249.413 154H247.775L249.521 144.136H251.159L250.835 146.008ZM259.17 149.068L262.95 154H260.718L257.622 149.662L256.848 154H255.21L257.568 140.68H259.206L257.82 148.492L262.392 144.136H264.66L259.17 149.068ZM268.668 154.162C267.636 154.162 266.79 153.916 266.13 153.424C265.47 152.932 265.14 152.272 265.14 151.444C265.14 151.288 265.146 151.174 265.158 151.102H266.76C266.712 151.618 266.862 152.038 267.21 152.362C267.57 152.686 268.086 152.848 268.758 152.848C269.43 152.848 269.97 152.722 270.378 152.47C270.798 152.206 271.008 151.84 271.008 151.372C271.008 150.976 270.84 150.664 270.504 150.436C270.168 150.208 269.652 149.962 268.956 149.698C268.344 149.47 267.84 149.254 267.444 149.05C267.048 148.846 266.712 148.564 266.436 148.204C266.16 147.832 266.022 147.364 266.022 146.8C266.022 146.248 266.178 145.756 266.49 145.324C266.814 144.892 267.258 144.562 267.822 144.334C268.398 144.094 269.052 143.974 269.784 143.974C270.792 143.974 271.62 144.226 272.268 144.73C272.916 145.234 273.24 145.894 273.24 146.71C273.24 146.866 273.234 146.986 273.222 147.07H271.656L271.674 146.854C271.674 146.374 271.488 145.996 271.116 145.72C270.756 145.432 270.276 145.288 269.676 145.288C269.088 145.288 268.602 145.42 268.218 145.684C267.846 145.948 267.66 146.302 267.66 146.746C267.66 147.166 267.834 147.496 268.182 147.736C268.53 147.976 269.07 148.24 269.802 148.528C270.414 148.768 270.906 148.99 271.278 149.194C271.65 149.386 271.968 149.656 272.232 150.004C272.496 150.352 272.628 150.79 272.628 151.318C272.628 151.894 272.454 152.398 272.106 152.83C271.77 153.262 271.302 153.592 270.702 153.82C270.102 154.048 269.424 154.162 268.668 154.162ZM281.903 154.108C281.627 154.108 281.399 154.024 281.219 153.856C281.051 153.688 280.967 153.466 280.967 153.19C280.967 152.83 281.099 152.524 281.363 152.272C281.627 152.008 281.939 151.876 282.299 151.876C282.575 151.876 282.797 151.96 282.965 152.128C283.133 152.296 283.217 152.518 283.217 152.794C283.217 153.154 283.085 153.466 282.821 153.73C282.557 153.982 282.251 154.108 281.903 154.108ZM286.115 141.454H287.951L285.503 145.54H284.333L286.115 141.454Z" fill="black"/>
<path d="M18.9 10.15V31H15.48V21.88H5.67V31H2.25V10.15H5.67V19.09H15.48V10.15H18.9ZM39.7523 22.33C39.7523 22.95 39.7123 23.51 39.6323 24.01H27.0023C27.1023 25.33 27.5923 26.39 28.4723 27.19C29.3523 27.99 30.4323 28.39 31.7123 28.39C33.5523 28.39 34.8523 27.62 35.6123 26.08H39.3023C38.8023 27.6 37.8923 28.85 36.5723 29.83C35.2723 30.79 33.6523 31.27 31.7123 31.27C30.1323 31.27 28.7123 30.92 27.4523 30.22C26.2123 29.5 25.2323 28.5 24.5123 27.22C23.8123 25.92 23.4623 24.42 23.4623 22.72C23.4623 21.02 23.8023 19.53 24.4823 18.25C25.1823 16.95 26.1523 15.95 27.3923 15.25C28.6523 14.55 30.0923 14.2 31.7123 14.2C33.2723 14.2 34.6623 14.54 35.8823 15.22C37.1023 15.9 38.0523 16.86 38.7323 18.1C39.4123 19.32 39.7523 20.73 39.7523 22.33ZM36.1823 21.25C36.1623 19.99 35.7123 18.98 34.8323 18.22C33.9523 17.46 32.8623 17.08 31.5623 17.08C30.3823 17.08 29.3723 17.46 28.5323 18.22C27.6923 18.96 27.1923 19.97 27.0323 21.25H36.1823ZM47.738 8.8V31H44.318V8.8H47.738ZM56.8481 8.8V31H53.4281V8.8H56.8481ZM69.7083 31.27C68.1483 31.27 66.7383 30.92 65.4783 30.22C64.2183 29.5 63.2283 28.5 62.5083 27.22C61.7883 25.92 61.4283 24.42 61.4283 22.72C61.4283 21.04 61.7983 19.55 62.5383 18.25C63.2783 16.95 64.2883 15.95 65.5683 15.25C66.8483 14.55 68.2783 14.2 69.8583 14.2C71.4383 14.2 72.8683 14.55 74.1483 15.25C75.4283 15.95 76.4383 16.95 77.1783 18.25C77.9183 19.55 78.2883 21.04 78.2883 22.72C78.2883 24.4 77.9083 25.89 77.1483 27.19C76.3883 28.49 75.3483 29.5 74.0283 30.22C72.7283 30.92 71.2883 31.27 69.7083 31.27ZM69.7083 28.3C70.5883 28.3 71.4083 28.09 72.1683 27.67C72.9483 27.25 73.5783 26.62 74.0583 25.78C74.5383 24.94 74.7783 23.92 74.7783 22.72C74.7783 21.52 74.5483 20.51 74.0883 19.69C73.6283 18.85 73.0183 18.22 72.2583 17.8C71.4983 17.38 70.6783 17.17 69.7983 17.17C68.9183 17.17 68.0983 17.38 67.3383 17.8C66.5983 18.22 66.0083 18.85 65.5683 19.69C65.1283 20.51 64.9083 21.52 64.9083 22.72C64.9083 24.5 65.3583 25.88 66.2583 26.86C67.1783 27.82 68.3283 28.3 69.7083 28.3ZM87.1591 10.15L86.7691 24.7H83.9191L83.5291 10.15H87.1591ZM85.4491 31.21C84.8291 31.21 84.3091 31 83.8891 30.58C83.4691 30.16 83.2591 29.64 83.2591 29.02C83.2591 28.4 83.4691 27.88 83.8891 27.46C84.3091 27.04 84.8291 26.83 85.4491 26.83C86.0491 26.83 86.5591 27.04 86.9791 27.46C87.3991 27.88 87.6091 28.4 87.6091 29.02C87.6091 29.64 87.3991 30.16 86.9791 30.58C86.5591 31 86.0491 31.21 85.4491 31.21ZM106.121 10.15V31H102.701V10.15H106.121ZM112.351 10.15H116.071L112.921 17.29H110.521L112.351 10.15ZM140.287 14.2C141.587 14.2 142.747 14.47 143.767 15.01C144.807 15.55 145.617 16.35 146.197 17.41C146.797 18.47 147.097 19.75 147.097 21.25V31H143.707V21.76C143.707 20.28 143.337 19.15 142.597 18.37C141.857 17.57 140.847 17.17 139.567 17.17C138.287 17.17 137.267 17.57 136.507 18.37C135.767 19.15 135.397 20.28 135.397 21.76V31H132.007V21.76C132.007 20.28 131.637 19.15 130.897 18.37C130.157 17.57 129.147 17.17 127.867 17.17C126.587 17.17 125.567 17.57 124.807 18.37C124.067 19.15 123.697 20.28 123.697 21.76V31H120.277V14.47H123.697V16.36C124.257 15.68 124.967 15.15 125.827 14.77C126.687 14.39 127.607 14.2 128.587 14.2C129.907 14.2 131.087 14.48 132.127 15.04C133.167 15.6 133.967 16.41 134.527 17.47C135.027 16.47 135.807 15.68 136.867 15.1C137.927 14.5 139.067 14.2 140.287 14.2ZM293.645 26.89L290.015 35.17H287.795L289.925 26.89H293.645ZM305.686 22.66C305.686 21 306.026 19.53 306.706 18.25C307.406 16.97 308.346 15.98 309.526 15.28C310.726 14.56 312.046 14.2 313.486 14.2C314.786 14.2 315.916 14.46 316.876 14.98C317.856 15.48 318.636 16.11 319.216 16.87V14.47H322.666V31H319.216V28.54C318.636 29.32 317.846 29.97 316.846 30.49C315.846 31.01 314.706 31.27 313.426 31.27C312.006 31.27 310.706 30.91 309.526 30.19C308.346 29.45 307.406 28.43 306.706 27.13C306.026 25.81 305.686 24.32 305.686 22.66ZM319.216 22.72C319.216 21.58 318.976 20.59 318.496 19.75C318.036 18.91 317.426 18.27 316.666 17.83C315.906 17.39 315.086 17.17 314.206 17.17C313.326 17.17 312.506 17.39 311.746 17.83C310.986 18.25 310.366 18.88 309.886 19.72C309.426 20.54 309.196 21.52 309.196 22.66C309.196 23.8 309.426 24.8 309.886 25.66C310.366 26.52 310.986 27.18 311.746 27.64C312.526 28.08 313.346 28.3 314.206 28.3C315.086 28.3 315.906 28.08 316.666 27.64C317.426 27.2 318.036 26.56 318.496 25.72C318.976 24.86 319.216 23.86 319.216 22.72ZM352.441 16.15C351.901 15.11 351.151 14.33 350.191 13.81C349.231 13.27 348.121 13 346.861 13C345.481 13 344.251 13.31 343.171 13.93C342.091 14.55 341.241 15.43 340.621 16.57C340.021 17.71 339.721 19.03 339.721 20.53C339.721 22.03 340.021 23.36 340.621 24.52C341.241 25.66 342.091 26.54 343.171 27.16C344.251 27.78 345.481 28.09 346.861 28.09C348.721 28.09 350.231 27.57 351.391 26.53C352.551 25.49 353.261 24.08 353.521 22.3H345.691V19.57H357.181V22.24C356.961 23.86 356.381 25.35 355.441 26.71C354.521 28.07 353.311 29.16 351.811 29.98C350.331 30.78 348.681 31.18 346.861 31.18C344.901 31.18 343.111 30.73 341.491 29.83C339.871 28.91 338.581 27.64 337.621 26.02C336.681 24.4 336.211 22.57 336.211 20.53C336.211 18.49 336.681 16.66 337.621 15.04C338.581 13.42 339.871 12.16 341.491 11.26C343.131 10.34 344.921 9.88 346.861 9.88C349.081 9.88 351.051 10.43 352.771 11.53C354.511 12.61 355.771 14.15 356.551 16.15H352.441ZM365.174 16.87C365.674 16.03 366.334 15.38 367.154 14.92C367.994 14.44 368.984 14.2 370.124 14.2V17.74H369.254C367.914 17.74 366.894 18.08 366.194 18.76C365.514 19.44 365.174 20.62 365.174 22.3V31H361.754V14.47H365.174V16.87ZM373.328 22.66C373.328 21 373.668 19.53 374.348 18.25C375.048 16.97 375.988 15.98 377.168 15.28C378.368 14.56 379.688 14.2 381.128 14.2C382.428 14.2 383.558 14.46 384.518 14.98C385.498 15.48 386.278 16.11 386.858 16.87V14.47H390.308V31H386.858V28.54C386.278 29.32 385.488 29.97 384.488 30.49C383.488 31.01 382.348 31.27 381.068 31.27C379.648 31.27 378.348 30.91 377.168 30.19C375.988 29.45 375.048 28.43 374.348 27.13C373.668 25.81 373.328 24.32 373.328 22.66ZM386.858 22.72C386.858 21.58 386.618 20.59 386.138 19.75C385.678 18.91 385.068 18.27 384.308 17.83C383.548 17.39 382.728 17.17 381.848 17.17C380.968 17.17 380.148 17.39 379.388 17.83C378.628 18.25 378.008 18.88 377.528 19.72C377.068 20.54 376.838 21.52 376.838 22.66C376.838 23.8 377.068 24.8 377.528 25.66C378.008 26.52 378.628 27.18 379.388 27.64C380.168 28.08 380.988 28.3 381.848 28.3C382.728 28.3 383.548 28.08 384.308 27.64C385.068 27.2 385.678 26.56 386.138 25.72C386.618 24.86 386.858 23.86 386.858 22.72ZM399.42 16.9C400 16.14 400.79 15.5 401.79 14.98C402.79 14.46 403.92 14.2 405.18 14.2C406.62 14.2 407.93 14.56 409.11 15.28C410.31 15.98 411.25 16.97 411.93 18.25C412.61 19.53 412.95 21 412.95 22.66C412.95 24.32 412.61 25.81 411.93 27.13C411.25 28.43 410.31 29.45 409.11 30.19C407.93 30.91 406.62 31.27 405.18 31.27C403.92 31.27 402.8 31.02 401.82 30.52C400.84 30 400.04 29.36 399.42 28.6V38.86H396V14.47H399.42V16.9ZM409.47 22.66C409.47 21.52 409.23 20.54 408.75 19.72C408.29 18.88 407.67 18.25 406.89 17.83C406.13 17.39 405.31 17.17 404.43 17.17C403.57 17.17 402.75 17.39 401.97 17.83C401.21 18.27 400.59 18.91 400.11 19.75C399.65 20.59 399.42 21.58 399.42 22.72C399.42 23.86 399.65 24.86 400.11 25.72C400.59 26.56 401.21 27.2 401.97 27.64C402.75 28.08 403.57 28.3 404.43 28.3C405.31 28.3 406.13 28.08 406.89 27.64C407.67 27.18 408.29 26.52 408.75 25.66C409.23 24.8 409.47 23.8 409.47 22.66ZM426.082 14.2C427.342 14.2 428.462 14.47 429.442 15.01C430.442 15.55 431.222 16.35 431.782 17.41C432.362 18.47 432.652 19.75 432.652 21.25V31H429.262V21.76C429.262 20.28 428.892 19.15 428.152 18.37C427.412 17.57 426.402 17.17 425.122 17.17C423.842 17.17 422.822 17.57 422.062 18.37C421.322 19.15 420.952 20.28 420.952 21.76V31H417.532V8.8H420.952V16.39C421.532 15.69 422.262 15.15 423.142 14.77C424.042 14.39 425.022 14.2 426.082 14.2ZM439.954 12.28C439.334 12.28 438.814 12.07 438.394 11.65C437.974 11.23 437.764 10.71 437.764 10.09C437.764 9.47 437.974 8.95 438.394 8.53C438.814 8.11 439.334 7.9 439.954 7.9C440.554 7.9 441.064 8.11 441.484 8.53C441.904 8.95 442.114 9.47 442.114 10.09C442.114 10.71 441.904 11.23 441.484 11.65C441.064 12.07 440.554 12.28 439.954 12.28ZM441.634 14.47V31H438.214V14.47H441.634ZM446.185 22.72C446.185 21.02 446.525 19.53 447.205 18.25C447.905 16.95 448.865 15.95 450.085 15.25C451.305 14.55 452.705 14.2 454.285 14.2C456.285 14.2 457.935 14.68 459.235 15.64C460.555 16.58 461.445 17.93 461.905 19.69H458.215C457.915 18.87 457.435 18.23 456.775 17.77C456.115 17.31 455.285 17.08 454.285 17.08C452.885 17.08 451.765 17.58 450.925 18.58C450.105 19.56 449.695 20.94 449.695 22.72C449.695 24.5 450.105 25.89 450.925 26.89C451.765 27.89 452.885 28.39 454.285 28.39C456.265 28.39 457.575 27.52 458.215 25.78H461.905C461.425 27.46 460.525 28.8 459.205 29.8C457.885 30.78 456.245 31.27 454.285 31.27C452.705 31.27 451.305 30.92 450.085 30.22C448.865 29.5 447.905 28.5 447.205 27.22C446.525 25.92 446.185 24.42 446.185 22.72ZM474.366 22.66C474.366 21 474.706 19.53 475.386 18.25C476.086 16.97 477.026 15.98 478.206 15.28C479.406 14.56 480.726 14.2 482.166 14.2C483.466 14.2 484.596 14.46 485.556 14.98C486.536 15.48 487.316 16.11 487.896 16.87V14.47H491.346V31H487.896V28.54C487.316 29.32 486.526 29.97 485.526 30.49C484.526 31.01 483.386 31.27 482.106 31.27C480.686 31.27 479.386 30.91 478.206 30.19C477.026 29.45 476.086 28.43 475.386 27.13C474.706 25.81 474.366 24.32 474.366 22.66ZM487.896 22.72C487.896 21.58 487.656 20.59 487.176 19.75C486.716 18.91 486.106 18.27 485.346 17.83C484.586 17.39 483.766 17.17 482.886 17.17C482.006 17.17 481.186 17.39 480.426 17.83C479.666 18.25 479.046 18.88 478.566 19.72C478.106 20.54 477.876 21.52 477.876 22.66C477.876 23.8 478.106 24.8 478.566 25.66C479.046 26.52 479.666 27.18 480.426 27.64C481.206 28.08 482.026 28.3 482.886 28.3C483.766 28.3 484.586 28.08 485.346 27.64C486.106 27.2 486.716 26.56 487.176 25.72C487.656 24.86 487.896 23.86 487.896 22.72ZM505.378 14.2C506.678 14.2 507.838 14.47 508.858 15.01C509.898 15.55 510.708 16.35 511.288 17.41C511.868 18.47 512.158 19.75 512.158 21.25V31H508.768V21.76C508.768 20.28 508.398 19.15 507.658 18.37C506.918 17.57 505.908 17.17 504.628 17.17C503.348 17.17 502.328 17.57 501.568 18.37C500.828 19.15 500.458 20.28 500.458 21.76V31H497.038V14.47H500.458V16.36C501.018 15.68 501.728 15.15 502.588 14.77C503.468 14.39 504.398 14.2 505.378 14.2ZM516.58 22.66C516.58 21 516.92 19.53 517.6 18.25C518.3 16.97 519.24 15.98 520.42 15.28C521.62 14.56 522.95 14.2 524.41 14.2C525.49 14.2 526.55 14.44 527.59 14.92C528.65 15.38 529.49 16 530.11 16.78V8.8H533.56V31H530.11V28.51C529.55 29.31 528.77 29.97 527.77 30.49C526.79 31.01 525.66 31.27 524.38 31.27C522.94 31.27 521.62 30.91 520.42 30.19C519.24 29.45 518.3 28.43 517.6 27.13C516.92 25.81 516.58 24.32 516.58 22.66ZM530.11 22.72C530.11 21.58 529.87 20.59 529.39 19.75C528.93 18.91 528.32 18.27 527.56 17.83C526.8 17.39 525.98 17.17 525.1 17.17C524.22 17.17 523.4 17.39 522.64 17.83C521.88 18.25 521.26 18.88 520.78 19.72C520.32 20.54 520.09 21.52 520.09 22.66C520.09 23.8 520.32 24.8 520.78 25.66C521.26 26.52 521.88 27.18 522.64 27.64C523.42 28.08 524.24 28.3 525.1 28.3C525.98 28.3 526.8 28.08 527.56 27.64C528.32 27.2 528.93 26.56 529.39 25.72C529.87 24.86 530.11 23.86 530.11 22.72ZM551.635 10.15V23.44C551.635 25.02 552.045 26.21 552.865 27.01C553.705 27.81 554.865 28.21 556.345 28.21C557.845 28.21 559.005 27.81 559.825 27.01C560.665 26.21 561.085 25.02 561.085 23.44V10.15H564.505V23.38C564.505 25.08 564.135 26.52 563.395 27.7C562.655 28.88 561.665 29.76 560.425 30.34C559.185 30.92 557.815 31.21 556.315 31.21C554.815 31.21 553.445 30.92 552.205 30.34C550.985 29.76 550.015 28.88 549.295 27.7C548.575 26.52 548.215 25.08 548.215 23.38V10.15H551.635ZM573.578 10.15V31H570.158V10.15H573.578ZM595.071 10.15C597.291 10.15 599.231 10.58 600.891 11.44C602.571 12.28 603.861 13.5 604.761 15.1C605.681 16.68 606.141 18.53 606.141 20.65C606.141 22.77 605.681 24.61 604.761 26.17C603.861 27.73 602.571 28.93 600.891 29.77C599.231 30.59 597.291 31 595.071 31H588.261V10.15H595.071ZM595.071 28.21C597.511 28.21 599.381 27.55 600.681 26.23C601.981 24.91 602.631 23.05 602.631 20.65C602.631 18.23 601.981 16.34 600.681 14.98C599.381 13.62 597.511 12.94 595.071 12.94H591.681V28.21H595.071ZM625.881 22.33C625.881 22.95 625.841 23.51 625.761 24.01H613.131C613.231 25.33 613.721 26.39 614.601 27.19C615.481 27.99 616.561 28.39 617.841 28.39C619.681 28.39 620.981 27.62 621.741 26.08H625.431C624.931 27.6 624.021 28.85 622.701 29.83C621.401 30.79 619.781 31.27 617.841 31.27C616.261 31.27 614.841 30.92 613.581 30.22C612.341 29.5 611.361 28.5 610.641 27.22C609.941 25.92 609.591 24.42 609.591 22.72C609.591 21.02 609.931 19.53 610.611 18.25C611.311 16.95 612.281 15.95 613.521 15.25C614.781 14.55 616.221 14.2 617.841 14.2C619.401 14.2 620.791 14.54 622.011 15.22C623.231 15.9 624.181 16.86 624.861 18.1C625.541 19.32 625.881 20.73 625.881 22.33ZM622.311 21.25C622.291 19.99 621.841 18.98 620.961 18.22C620.081 17.46 618.991 17.08 617.691 17.08C616.511 17.08 615.501 17.46 614.661 18.22C613.821 18.96 613.321 19.97 613.161 21.25H622.311ZM636.446 31.27C635.146 31.27 633.976 31.04 632.936 30.58C631.916 30.1 631.106 29.46 630.506 28.66C629.906 27.84 629.586 26.93 629.546 25.93H633.086C633.146 26.63 633.476 27.22 634.076 27.7C634.696 28.16 635.466 28.39 636.386 28.39C637.346 28.39 638.086 28.21 638.606 27.85C639.146 27.47 639.416 26.99 639.416 26.41C639.416 25.79 639.116 25.33 638.516 25.03C637.936 24.73 637.006 24.4 635.726 24.04C634.486 23.7 633.476 23.37 632.696 23.05C631.916 22.73 631.236 22.24 630.656 21.58C630.096 20.92 629.816 20.05 629.816 18.97C629.816 18.09 630.076 17.29 630.596 16.57C631.116 15.83 631.856 15.25 632.816 14.83C633.796 14.41 634.916 14.2 636.176 14.2C638.056 14.2 639.566 14.68 640.706 15.64C641.866 16.58 642.486 17.87 642.566 19.51H639.146C639.086 18.77 638.786 18.18 638.246 17.74C637.706 17.3 636.976 17.08 636.056 17.08C635.156 17.08 634.466 17.25 633.986 17.59C633.506 17.93 633.266 18.38 633.266 18.94C633.266 19.38 633.426 19.75 633.746 20.05C634.066 20.35 634.456 20.59 634.916 20.77C635.376 20.93 636.056 21.14 636.956 21.4C638.156 21.72 639.136 22.05 639.896 22.39C640.676 22.71 641.346 23.19 641.906 23.83C642.466 24.47 642.756 25.32 642.776 26.38C642.776 27.32 642.516 28.16 641.996 28.9C641.476 29.64 640.736 30.22 639.776 30.64C638.836 31.06 637.726 31.27 636.446 31.27ZM649.412 12.28C648.792 12.28 648.272 12.07 647.852 11.65C647.432 11.23 647.222 10.71 647.222 10.09C647.222 9.47 647.432 8.95 647.852 8.53C648.272 8.11 648.792 7.9 649.412 7.9C650.012 7.9 650.522 8.11 650.942 8.53C651.362 8.95 651.572 9.47 651.572 10.09C651.572 10.71 651.362 11.23 650.942 11.65C650.522 12.07 650.012 12.28 649.412 12.28ZM651.092 14.47V31H647.672V14.47H651.092ZM663.442 14.2C664.722 14.2 665.852 14.46 666.832 14.98C667.832 15.48 668.612 16.11 669.172 16.87V14.47H672.622V31.27C672.622 32.79 672.302 34.14 671.662 35.32C671.022 36.52 670.092 37.46 668.872 38.14C667.672 38.82 666.232 39.16 664.552 39.16C662.312 39.16 660.452 38.63 658.972 37.57C657.492 36.53 656.652 35.11 656.452 33.31H659.842C660.102 34.17 660.652 34.86 661.492 35.38C662.352 35.92 663.372 36.19 664.552 36.19C665.932 36.19 667.042 35.77 667.882 34.93C668.742 34.09 669.172 32.87 669.172 31.27V28.51C668.592 29.29 667.802 29.95 666.802 30.49C665.822 31.01 664.702 31.27 663.442 31.27C662.002 31.27 660.682 30.91 659.482 30.19C658.302 29.45 657.362 28.43 656.662 27.13C655.982 25.81 655.642 24.32 655.642 22.66C655.642 21 655.982 19.53 656.662 18.25C657.362 16.97 658.302 15.98 659.482 15.28C660.682 14.56 662.002 14.2 663.442 14.2ZM669.172 22.72C669.172 21.58 668.932 20.59 668.452 19.75C667.992 18.91 667.382 18.27 666.622 17.83C665.862 17.39 665.042 17.17 664.162 17.17C663.282 17.17 662.462 17.39 661.702 17.83C660.942 18.25 660.322 18.88 659.842 19.72C659.382 20.54 659.152 21.52 659.152 22.66C659.152 23.8 659.382 24.8 659.842 25.66C660.322 26.52 660.942 27.18 661.702 27.64C662.482 28.08 663.302 28.3 664.162 28.3C665.042 28.3 665.862 28.08 666.622 27.64C667.382 27.2 667.992 26.56 668.452 25.72C668.932 24.86 669.172 23.86 669.172 22.72ZM686.654 14.2C687.954 14.2 689.114 14.47 690.134 15.01C691.174 15.55 691.984 16.35 692.564 17.41C693.144 18.47 693.434 19.75 693.434 21.25V31H690.044V21.76C690.044 20.28 689.674 19.15 688.934 18.37C688.194 17.57 687.184 17.17 685.904 17.17C684.624 17.17 683.604 17.57 682.844 18.37C682.104 19.15 681.734 20.28 681.734 21.76V31H678.314V14.47H681.734V16.36C682.294 15.68 683.004 15.15 683.864 14.77C684.744 14.39 685.674 14.2 686.654 14.2ZM714.146 22.33C714.146 22.95 714.106 23.51 714.026 24.01H701.396C701.496 25.33 701.986 26.39 702.866 27.19C703.746 27.99 704.826 28.39 706.106 28.39C707.946 28.39 709.246 27.62 710.006 26.08H713.696C713.196 27.6 712.286 28.85 710.966 29.83C709.666 30.79 708.046 31.27 706.106 31.27C704.526 31.27 703.106 30.92 701.846 30.22C700.606 29.5 699.626 28.5 698.906 27.22C698.206 25.92 697.856 24.42 697.856 22.72C697.856 21.02 698.196 19.53 698.876 18.25C699.576 16.95 700.546 15.95 701.786 15.25C703.046 14.55 704.486 14.2 706.106 14.2C707.666 14.2 709.056 14.54 710.276 15.22C711.496 15.9 712.446 16.86 713.126 18.1C713.806 19.32 714.146 20.73 714.146 22.33ZM710.576 21.25C710.556 19.99 710.106 18.98 709.226 18.22C708.346 17.46 707.256 17.08 705.956 17.08C704.776 17.08 703.766 17.46 702.926 18.22C702.086 18.96 701.586 19.97 701.426 21.25H710.576ZM722.132 16.87C722.632 16.03 723.292 15.38 724.112 14.92C724.952 14.44 725.942 14.2 727.082 14.2V17.74H726.212C724.872 17.74 723.852 18.08 723.152 18.76C722.472 19.44 722.132 20.62 722.132 22.3V31H718.712V14.47H722.132V16.87ZM29.4 60.15L23.22 81H19.35L14.97 65.22L10.32 81L6.48 81.03L0.57 60.15H4.2L8.52 77.13L13.2 60.15H17.04L21.39 77.04L25.74 60.15H29.4ZM48.5707 72.33C48.5707 72.95 48.5307 73.51 48.4507 74.01H35.8207C35.9207 75.33 36.4107 76.39 37.2907 77.19C38.1707 77.99 39.2507 78.39 40.5307 78.39C42.3707 78.39 43.6707 77.62 44.4307 76.08H48.1207C47.6207 77.6 46.7107 78.85 45.3907 79.83C44.0907 80.79 42.4707 81.27 40.5307 81.27C38.9507 81.27 37.5307 80.92 36.2707 80.22C35.0307 79.5 34.0507 78.5 33.3307 77.22C32.6307 75.92 32.2807 74.42 32.2807 72.72C32.2807 71.02 32.6207 69.53 33.3007 68.25C34.0007 66.95 34.9707 65.95 36.2107 65.25C37.4707 64.55 38.9107 64.2 40.5307 64.2C42.0907 64.2 43.4807 64.54 44.7007 65.22C45.9207 65.9 46.8707 66.86 47.5507 68.1C48.2307 69.32 48.5707 70.73 48.5707 72.33ZM45.0007 71.25C44.9807 69.99 44.5307 68.98 43.6507 68.22C42.7707 67.46 41.6807 67.08 40.3807 67.08C39.2007 67.08 38.1907 67.46 37.3507 68.22C36.5107 68.96 36.0107 69.97 35.8507 71.25H45.0007ZM56.5563 58.8V81H53.1363V58.8H56.5563ZM61.1065 72.72C61.1065 71.02 61.4465 69.53 62.1265 68.25C62.8265 66.95 63.7865 65.95 65.0065 65.25C66.2265 64.55 67.6265 64.2 69.2065 64.2C71.2065 64.2 72.8565 64.68 74.1565 65.64C75.4765 66.58 76.3665 67.93 76.8265 69.69H73.1365C72.8365 68.87 72.3565 68.23 71.6965 67.77C71.0365 67.31 70.2065 67.08 69.2065 67.08C67.8065 67.08 66.6865 67.58 65.8465 68.58C65.0265 69.56 64.6165 70.94 64.6165 72.72C64.6165 74.5 65.0265 75.89 65.8465 76.89C66.6865 77.89 67.8065 78.39 69.2065 78.39C71.1865 78.39 72.4965 77.52 73.1365 75.78H76.8265C76.3465 77.46 75.4465 78.8 74.1265 79.8C72.8065 80.78 71.1665 81.27 69.2065 81.27C67.6265 81.27 66.2265 80.92 65.0065 80.22C63.7865 79.5 62.8265 78.5 62.1265 77.22C61.4465 75.92 61.1065 74.42 61.1065 72.72ZM88.6048 81.27C87.0448 81.27 85.6348 80.92 84.3748 80.22C83.1148 79.5 82.1248 78.5 81.4048 77.22C80.6848 75.92 80.3248 74.42 80.3248 72.72C80.3248 71.04 80.6948 69.55 81.4348 68.25C82.1748 66.95 83.1848 65.95 84.4648 65.25C85.7448 64.55 87.1748 64.2 88.7548 64.2C90.3348 64.2 91.7648 64.55 93.0448 65.25C94.3248 65.95 95.3348 66.95 96.0748 68.25C96.8148 69.55 97.1848 71.04 97.1848 72.72C97.1848 74.4 96.8048 75.89 96.0448 77.19C95.2848 78.49 94.2448 79.5 92.9248 80.22C91.6248 80.92 90.1848 81.27 88.6048 81.27ZM88.6048 78.3C89.4848 78.3 90.3048 78.09 91.0648 77.67C91.8448 77.25 92.4748 76.62 92.9548 75.78C93.4348 74.94 93.6748 73.92 93.6748 72.72C93.6748 71.52 93.4448 70.51 92.9848 69.69C92.5248 68.85 91.9148 68.22 91.1548 67.8C90.3948 67.38 89.5748 67.17 88.6948 67.17C87.8148 67.17 86.9948 67.38 86.2348 67.8C85.4948 68.22 84.9048 68.85 84.4648 69.69C84.0248 70.51 83.8048 71.52 83.8048 72.72C83.8048 74.5 84.2548 75.88 85.1548 76.86C86.0748 77.82 87.2248 78.3 88.6048 78.3ZM121.776 64.2C123.076 64.2 124.236 64.47 125.256 65.01C126.296 65.55 127.106 66.35 127.686 67.41C128.286 68.47 128.586 69.75 128.586 71.25V81H125.196V71.76C125.196 70.28 124.826 69.15 124.086 68.37C123.346 67.57 122.336 67.17 121.056 67.17C119.776 67.17 118.756 67.57 117.996 68.37C117.256 69.15 116.886 70.28 116.886 71.76V81H113.496V71.76C113.496 70.28 113.126 69.15 112.386 68.37C111.646 67.57 110.636 67.17 109.356 67.17C108.076 67.17 107.056 67.57 106.296 68.37C105.556 69.15 105.186 70.28 105.186 71.76V81H101.766V64.47H105.186V66.36C105.746 65.68 106.456 65.15 107.316 64.77C108.176 64.39 109.096 64.2 110.076 64.2C111.396 64.2 112.576 64.48 113.616 65.04C114.656 65.6 115.456 66.41 116.016 67.47C116.516 66.47 117.296 65.68 118.356 65.1C119.416 64.5 120.556 64.2 121.776 64.2ZM149.287 72.33C149.287 72.95 149.247 73.51 149.167 74.01H136.537C136.637 75.33 137.127 76.39 138.007 77.19C138.887 77.99 139.967 78.39 141.247 78.39C143.087 78.39 144.387 77.62 145.147 76.08H148.837C148.337 77.6 147.427 78.85 146.107 79.83C144.807 80.79 143.187 81.27 141.247 81.27C139.667 81.27 138.247 80.92 136.987 80.22C135.747 79.5 134.767 78.5 134.047 77.22C133.347 75.92 132.997 74.42 132.997 72.72C132.997 71.02 133.337 69.53 134.017 68.25C134.717 66.95 135.687 65.95 136.927 65.25C138.187 64.55 139.627 64.2 141.247 64.2C142.807 64.2 144.197 64.54 145.417 65.22C146.637 65.9 147.587 66.86 148.267 68.1C148.947 69.32 149.287 70.73 149.287 72.33ZM145.717 71.25C145.697 69.99 145.247 68.98 144.367 68.22C143.487 67.46 142.397 67.08 141.097 67.08C139.917 67.08 138.907 67.46 138.067 68.22C137.227 68.96 136.727 69.97 136.567 71.25H145.717ZM166.836 67.26V76.41C166.836 77.03 166.976 77.48 167.256 77.76C167.556 78.02 168.056 78.15 168.756 78.15H170.856V81H168.156C166.616 81 165.436 80.64 164.616 79.92C163.796 79.2 163.386 78.03 163.386 76.41V67.26H161.436V64.47H163.386V60.36H166.836V64.47H170.856V67.26H166.836ZM182.378 81.27C180.818 81.27 179.408 80.92 178.148 80.22C176.888 79.5 175.898 78.5 175.178 77.22C174.458 75.92 174.098 74.42 174.098 72.72C174.098 71.04 174.468 69.55 175.208 68.25C175.948 66.95 176.958 65.95 178.238 65.25C179.518 64.55 180.948 64.2 182.528 64.2C184.108 64.2 185.538 64.55 186.818 65.25C188.098 65.95 189.108 66.95 189.848 68.25C190.588 69.55 190.958 71.04 190.958 72.72C190.958 74.4 190.578 75.89 189.818 77.19C189.058 78.49 188.018 79.5 186.698 80.22C185.398 80.92 183.958 81.27 182.378 81.27ZM182.378 78.3C183.258 78.3 184.078 78.09 184.838 77.67C185.618 77.25 186.248 76.62 186.728 75.78C187.208 74.94 187.448 73.92 187.448 72.72C187.448 71.52 187.218 70.51 186.758 69.69C186.298 68.85 185.688 68.22 184.928 67.8C184.168 67.38 183.348 67.17 182.468 67.17C181.588 67.17 180.768 67.38 180.008 67.8C179.268 68.22 178.678 68.85 178.238 69.69C177.798 70.51 177.578 71.52 177.578 72.72C177.578 74.5 178.028 75.88 178.928 76.86C179.848 77.82 180.998 78.3 182.378 78.3ZM224.542 64.2C225.842 64.2 227.002 64.47 228.022 65.01C229.062 65.55 229.872 66.35 230.452 67.41C231.052 68.47 231.352 69.75 231.352 71.25V81H227.962V71.76C227.962 70.28 227.592 69.15 226.852 68.37C226.112 67.57 225.102 67.17 223.822 67.17C222.542 67.17 221.522 67.57 220.762 68.37C220.022 69.15 219.652 70.28 219.652 71.76V81H216.262V71.76C216.262 70.28 215.892 69.15 215.152 68.37C214.412 67.57 213.402 67.17 212.122 67.17C210.842 67.17 209.822 67.57 209.062 68.37C208.322 69.15 207.952 70.28 207.952 71.76V81H204.532V64.47H207.952V66.36C208.512 65.68 209.222 65.15 210.082 64.77C210.942 64.39 211.862 64.2 212.842 64.2C214.162 64.2 215.342 64.48 216.382 65.04C217.422 65.6 218.222 66.41 218.782 67.47C219.282 66.47 220.062 65.68 221.122 65.1C222.182 64.5 223.322 64.2 224.542 64.2ZM251.784 64.47L241.644 88.77H238.104L241.464 80.73L234.954 64.47H238.764L243.414 77.07L248.244 64.47H251.784ZM263.418 72.66C263.418 71 263.758 69.53 264.438 68.25C265.138 66.97 266.078 65.98 267.258 65.28C268.458 64.56 269.788 64.2 271.248 64.2C272.328 64.2 273.388 64.44 274.428 64.92C275.488 65.38 276.328 66 276.948 66.78V58.8H280.398V81H276.948V78.51C276.388 79.31 275.608 79.97 274.608 80.49C273.628 81.01 272.498 81.27 271.218 81.27C269.778 81.27 268.458 80.91 267.258 80.19C266.078 79.45 265.138 78.43 264.438 77.13C263.758 75.81 263.418 74.32 263.418 72.66ZM276.948 72.72C276.948 71.58 276.708 70.59 276.228 69.75C275.768 68.91 275.158 68.27 274.398 67.83C273.638 67.39 272.818 67.17 271.938 67.17C271.058 67.17 270.238 67.39 269.478 67.83C268.718 68.25 268.098 68.88 267.618 69.72C267.158 70.54 266.928 71.52 266.928 72.66C266.928 73.8 267.158 74.8 267.618 75.66C268.098 76.52 268.718 77.18 269.478 77.64C270.258 78.08 271.078 78.3 271.938 78.3C272.818 78.3 273.638 78.08 274.398 77.64C275.158 77.2 275.768 76.56 276.228 75.72C276.708 74.86 276.948 73.86 276.948 72.72ZM301.24 72.33C301.24 72.95 301.2 73.51 301.12 74.01H288.49C288.59 75.33 289.08 76.39 289.96 77.19C290.84 77.99 291.92 78.39 293.2 78.39C295.04 78.39 296.34 77.62 297.1 76.08H300.79C300.29 77.6 299.38 78.85 298.06 79.83C296.76 80.79 295.14 81.27 293.2 81.27C291.62 81.27 290.2 80.92 288.94 80.22C287.7 79.5 286.72 78.5 286 77.22C285.3 75.92 284.95 74.42 284.95 72.72C284.95 71.02 285.29 69.53 285.97 68.25C286.67 66.95 287.64 65.95 288.88 65.25C290.14 64.55 291.58 64.2 293.2 64.2C294.76 64.2 296.15 64.54 297.37 65.22C298.59 65.9 299.54 66.86 300.22 68.1C300.9 69.32 301.24 70.73 301.24 72.33ZM297.67 71.25C297.65 69.99 297.2 68.98 296.32 68.22C295.44 67.46 294.35 67.08 293.05 67.08C291.87 67.08 290.86 67.46 290.02 68.22C289.18 68.96 288.68 69.97 288.52 71.25H297.67ZM311.805 81.27C310.505 81.27 309.335 81.04 308.295 80.58C307.275 80.1 306.465 79.46 305.865 78.66C305.265 77.84 304.945 76.93 304.905 75.93H308.445C308.505 76.63 308.835 77.22 309.435 77.7C310.055 78.16 310.825 78.39 311.745 78.39C312.705 78.39 313.445 78.21 313.965 77.85C314.505 77.47 314.775 76.99 314.775 76.41C314.775 75.79 314.475 75.33 313.875 75.03C313.295 74.73 312.365 74.4 311.085 74.04C309.845 73.7 308.835 73.37 308.055 73.05C307.275 72.73 306.595 72.24 306.015 71.58C305.455 70.92 305.175 70.05 305.175 68.97C305.175 68.09 305.435 67.29 305.955 66.57C306.475 65.83 307.215 65.25 308.175 64.83C309.155 64.41 310.275 64.2 311.535 64.2C313.415 64.2 314.925 64.68 316.065 65.64C317.225 66.58 317.845 67.87 317.925 69.51H314.505C314.445 68.77 314.145 68.18 313.605 67.74C313.065 67.3 312.335 67.08 311.415 67.08C310.515 67.08 309.825 67.25 309.345 67.59C308.865 67.93 308.625 68.38 308.625 68.94C308.625 69.38 308.785 69.75 309.105 70.05C309.425 70.35 309.815 70.59 310.275 70.77C310.735 70.93 311.415 71.14 312.315 71.4C313.515 71.72 314.495 72.05 315.255 72.39C316.035 72.71 316.705 73.19 317.265 73.83C317.825 74.47 318.115 75.32 318.135 76.38C318.135 77.32 317.875 78.16 317.355 78.9C316.835 79.64 316.095 80.22 315.135 80.64C314.195 81.06 313.085 81.27 311.805 81.27ZM324.771 62.28C324.151 62.28 323.631 62.07 323.211 61.65C322.791 61.23 322.581 60.71 322.581 60.09C322.581 59.47 322.791 58.95 323.211 58.53C323.631 58.11 324.151 57.9 324.771 57.9C325.371 57.9 325.881 58.11 326.301 58.53C326.721 58.95 326.931 59.47 326.931 60.09C326.931 60.71 326.721 61.23 326.301 61.65C325.881 62.07 325.371 62.28 324.771 62.28ZM326.451 64.47V81H323.031V64.47H326.451ZM338.801 64.2C340.081 64.2 341.211 64.46 342.191 64.98C343.191 65.48 343.971 66.11 344.531 66.87V64.47H347.981V81.27C347.981 82.79 347.661 84.14 347.021 85.32C346.381 86.52 345.451 87.46 344.231 88.14C343.031 88.82 341.591 89.16 339.911 89.16C337.671 89.16 335.811 88.63 334.331 87.57C332.851 86.53 332.011 85.11 331.811 83.31H335.201C335.461 84.17 336.011 84.86 336.851 85.38C337.711 85.92 338.731 86.19 339.911 86.19C341.291 86.19 342.401 85.77 343.241 84.93C344.101 84.09 344.531 82.87 344.531 81.27V78.51C343.951 79.29 343.161 79.95 342.161 80.49C341.181 81.01 340.061 81.27 338.801 81.27C337.361 81.27 336.041 80.91 334.841 80.19C333.661 79.45 332.721 78.43 332.021 77.13C331.341 75.81 331.001 74.32 331.001 72.66C331.001 71 331.341 69.53 332.021 68.25C332.721 66.97 333.661 65.98 334.841 65.28C336.041 64.56 337.361 64.2 338.801 64.2ZM344.531 72.72C344.531 71.58 344.291 70.59 343.811 69.75C343.351 68.91 342.741 68.27 341.981 67.83C341.221 67.39 340.401 67.17 339.521 67.17C338.641 67.17 337.821 67.39 337.061 67.83C336.301 68.25 335.681 68.88 335.201 69.72C334.741 70.54 334.511 71.52 334.511 72.66C334.511 73.8 334.741 74.8 335.201 75.66C335.681 76.52 336.301 77.18 337.061 77.64C337.841 78.08 338.661 78.3 339.521 78.3C340.401 78.3 341.221 78.08 341.981 77.64C342.741 77.2 343.351 76.56 343.811 75.72C344.291 74.86 344.531 73.86 344.531 72.72ZM362.013 64.2C363.313 64.2 364.473 64.47 365.493 65.01C366.533 65.55 367.343 66.35 367.923 67.41C368.503 68.47 368.793 69.75 368.793 71.25V81H365.403V71.76C365.403 70.28 365.033 69.15 364.293 68.37C363.553 67.57 362.543 67.17 361.263 67.17C359.983 67.17 358.963 67.57 358.203 68.37C357.463 69.15 357.093 70.28 357.093 71.76V81H353.673V64.47H357.093V66.36C357.653 65.68 358.363 65.15 359.223 64.77C360.103 64.39 361.033 64.2 362.013 64.2ZM405.548 64.47L400.418 81H396.818L393.488 68.79L390.158 81H386.558L381.398 64.47H384.878L388.328 77.76L391.838 64.47H395.408L398.768 77.7L402.188 64.47H405.548ZM416.474 81.27C414.914 81.27 413.504 80.92 412.244 80.22C410.984 79.5 409.994 78.5 409.274 77.22C408.554 75.92 408.194 74.42 408.194 72.72C408.194 71.04 408.564 69.55 409.304 68.25C410.044 66.95 411.054 65.95 412.334 65.25C413.614 64.55 415.044 64.2 416.624 64.2C418.204 64.2 419.634 64.55 420.914 65.25C422.194 65.95 423.204 66.95 423.944 68.25C424.684 69.55 425.054 71.04 425.054 72.72C425.054 74.4 424.674 75.89 423.914 77.19C423.154 78.49 422.114 79.5 420.794 80.22C419.494 80.92 418.054 81.27 416.474 81.27ZM416.474 78.3C417.354 78.3 418.174 78.09 418.934 77.67C419.714 77.25 420.344 76.62 420.824 75.78C421.304 74.94 421.544 73.92 421.544 72.72C421.544 71.52 421.314 70.51 420.854 69.69C420.394 68.85 419.784 68.22 419.024 67.8C418.264 67.38 417.444 67.17 416.564 67.17C415.684 67.17 414.864 67.38 414.104 67.8C413.364 68.22 412.774 68.85 412.334 69.69C411.894 70.51 411.674 71.52 411.674 72.72C411.674 74.5 412.124 75.88 413.024 76.86C413.944 77.82 415.094 78.3 416.474 78.3ZM433.055 66.87C433.555 66.03 434.215 65.38 435.035 64.92C435.875 64.44 436.865 64.2 438.005 64.2V67.74H437.135C435.795 67.74 434.775 68.08 434.075 68.76C433.395 69.44 433.055 70.62 433.055 72.3V81H429.635V64.47H433.055V66.87ZM445.769 58.8V81H442.349V58.8H445.769ZM450.319 72.66C450.319 71 450.659 69.53 451.339 68.25C452.039 66.97 452.979 65.98 454.159 65.28C455.359 64.56 456.689 64.2 458.149 64.2C459.229 64.2 460.289 64.44 461.329 64.92C462.389 65.38 463.229 66 463.849 66.78V58.8H467.299V81H463.849V78.51C463.289 79.31 462.509 79.97 461.509 80.49C460.529 81.01 459.399 81.27 458.119 81.27C456.679 81.27 455.359 80.91 454.159 80.19C452.979 79.45 452.039 78.43 451.339 77.13C450.659 75.81 450.319 74.32 450.319 72.66ZM463.849 72.72C463.849 71.58 463.609 70.59 463.129 69.75C462.669 68.91 462.059 68.27 461.299 67.83C460.539 67.39 459.719 67.17 458.839 67.17C457.959 67.17 457.139 67.39 456.379 67.83C455.619 68.25 454.999 68.88 454.519 69.72C454.059 70.54 453.829 71.52 453.829 72.66C453.829 73.8 454.059 74.8 454.519 75.66C454.999 76.52 455.619 77.18 456.379 77.64C457.159 78.08 457.979 78.3 458.839 78.3C459.719 78.3 460.539 78.08 461.299 77.64C462.059 77.2 462.669 76.56 463.129 75.72C463.609 74.86 463.849 73.86 463.849 72.72Z" fill="black"/>
<path d="M160.501 20.53C160.501 18.49 160.971 16.66 161.911 15.04C162.871 13.42 164.161 12.16 165.781 11.26C167.421 10.34 169.211 9.88 171.151 9.88C173.371 9.88 175.341 10.43 177.061 11.53C178.801 12.61 180.061 14.15 180.841 16.15H176.731C176.191 15.05 175.441 14.23 174.481 13.69C173.521 13.15 172.411 12.88 171.151 12.88C169.771 12.88 168.541 13.19 167.461 13.81C166.381 14.43 165.531 15.32 164.911 16.48C164.311 17.64 164.011 18.99 164.011 20.53C164.011 22.07 164.311 23.42 164.911 24.58C165.531 25.74 166.381 26.64 167.461 27.28C168.541 27.9 169.771 28.21 171.151 28.21C172.411 28.21 173.521 27.94 174.481 27.4C175.441 26.86 176.191 26.04 176.731 24.94H180.841C180.061 26.94 178.801 28.48 177.061 29.56C175.341 30.64 173.371 31.18 171.151 31.18C169.191 31.18 167.401 30.73 165.781 29.83C164.161 28.91 162.871 27.64 161.911 26.02C160.971 24.4 160.501 22.57 160.501 20.53ZM202.695 10.15V31H199.275V21.88H189.465V31H186.045V10.15H189.465V19.09H199.275V10.15H202.695ZM211.817 10.15V31H208.397V10.15H211.817ZM230.077 26.74H221.347L219.847 31H216.277L223.747 10.12H227.707L235.177 31H231.577L230.077 26.74ZM229.117 23.95L225.727 14.26L222.307 23.95H229.117ZM264.068 10.15L257.168 23.44V31H253.748V23.44L246.818 10.15H250.628L255.458 20.38L260.288 10.15H264.068ZM271.372 10.15V23.44C271.372 25.02 271.782 26.21 272.602 27.01C273.442 27.81 274.602 28.21 276.082 28.21C277.582 28.21 278.742 27.81 279.562 27.01C280.402 26.21 280.822 25.02 280.822 23.44V10.15H284.242V23.38C284.242 25.08 283.872 26.52 283.132 27.7C282.392 28.88 281.402 29.76 280.162 30.34C278.922 30.92 277.552 31.21 276.052 31.21C274.552 31.21 273.182 30.92 271.942 30.34C270.722 29.76 269.752 28.88 269.032 27.7C268.312 26.52 267.952 25.08 267.952 23.38V10.15H271.372Z" fill="#0A4DFA"/>
<line x1="499" y1="73.5" x2="728" y2="73.5" stroke="#0A4DFA" stroke-width="3"/>
</svg>
