<svg width="264" height="40" viewBox="0 0 264 40" fill="none" xmlns="http://www.w3.org/2000/svg">
<path d="M11.76 31.21C9.82 31.21 8.03 30.76 6.39 29.86C4.77 28.94 3.48 27.67 2.52 26.05C1.58 24.41 1.11 22.57 1.11 20.53C1.11 18.49 1.58 16.66 2.52 15.04C3.48 13.42 4.77 12.16 6.39 11.26C8.03 10.34 9.82 9.88 11.76 9.88C13.72 9.88 15.51 10.34 17.13 11.26C18.77 12.16 20.06 13.42 21 15.04C21.94 16.66 22.41 18.49 22.41 20.53C22.41 22.57 21.94 24.41 21 26.05C20.06 27.67 18.77 28.94 17.13 29.86C15.51 30.76 13.72 31.21 11.76 31.21ZM11.76 28.24C13.14 28.24 14.37 27.93 15.45 27.31C16.53 26.67 17.37 25.77 17.97 24.61C18.59 23.43 18.9 22.07 18.9 20.53C18.9 18.99 18.59 17.64 17.97 16.48C17.37 15.32 16.53 14.43 15.45 13.81C14.37 13.19 13.14 12.88 11.76 12.88C10.38 12.88 9.15 13.19 8.07 13.81C6.99 14.43 6.14 15.32 5.52 16.48C4.92 17.64 4.62 18.99 4.62 20.53C4.62 22.07 4.92 23.43 5.52 24.61C6.14 25.77 6.99 26.67 8.07 27.31C9.15 27.93 10.38 28.24 11.76 28.24ZM30.9654 17.26V26.41C30.9654 27.03 31.1054 27.48 31.3854 27.76C31.6854 28.02 32.1854 28.15 32.8854 28.15H34.9854V31H32.2854C30.7454 31 29.5654 30.64 28.7454 29.92C27.9254 29.2 27.5154 28.03 27.5154 26.41V17.26H25.5654V14.47H27.5154V10.36H30.9654V14.47H34.9854V17.26H30.9654ZM47.8875 14.2C49.1475 14.2 50.2675 14.47 51.2475 15.01C52.2475 15.55 53.0275 16.35 53.5875 17.41C54.1675 18.47 54.4575 19.75 54.4575 21.25V31H51.0675V21.76C51.0675 20.28 50.6975 19.15 49.9575 18.37C49.2175 17.57 48.2075 17.17 46.9275 17.17C45.6475 17.17 44.6275 17.57 43.8675 18.37C43.1275 19.15 42.7575 20.28 42.7575 21.76V31H39.3375V8.8H42.7575V16.39C43.3375 15.69 44.0675 15.15 44.9475 14.77C45.8475 14.39 46.8275 14.2 47.8875 14.2ZM75.1699 22.33C75.1699 22.95 75.1299 23.51 75.0499 24.01H62.4199C62.5199 25.33 63.0099 26.39 63.8899 27.19C64.7699 27.99 65.8499 28.39 67.1299 28.39C68.9699 28.39 70.2699 27.62 71.0299 26.08H74.7199C74.2199 27.6 73.3099 28.85 71.9899 29.83C70.6899 30.79 69.0699 31.27 67.1299 31.27C65.5499 31.27 64.1299 30.92 62.8699 30.22C61.6299 29.5 60.6499 28.5 59.9299 27.22C59.2299 25.92 58.8799 24.42 58.8799 22.72C58.8799 21.02 59.2199 19.53 59.8999 18.25C60.5999 16.95 61.5699 15.95 62.8099 15.25C64.0699 14.55 65.5099 14.2 67.1299 14.2C68.6899 14.2 70.0799 14.54 71.2999 15.22C72.5199 15.9 73.4699 16.86 74.1499 18.1C74.8299 19.32 75.1699 20.73 75.1699 22.33ZM71.5999 21.25C71.5799 19.99 71.1299 18.98 70.2499 18.22C69.3699 17.46 68.2799 17.08 66.9799 17.08C65.7999 17.08 64.7899 17.46 63.9499 18.22C63.1099 18.96 62.6099 19.97 62.4499 21.25H71.5999ZM83.1556 16.87C83.6556 16.03 84.3156 15.38 85.1356 14.92C85.9756 14.44 86.9656 14.2 88.1055 14.2V17.74H87.2356C85.8956 17.74 84.8756 18.08 84.1756 18.76C83.4956 19.44 83.1556 20.62 83.1556 22.3V31H79.7356V14.47H83.1556V16.87ZM128.592 10.15L122.412 31H118.542L114.162 15.22L109.512 31L105.672 31.03L99.7622 10.15H103.392L107.712 27.13L112.392 10.15H116.232L120.582 27.04L124.932 10.15H128.592ZM139.783 31.27C138.223 31.27 136.813 30.92 135.553 30.22C134.293 29.5 133.303 28.5 132.583 27.22C131.863 25.92 131.503 24.42 131.503 22.72C131.503 21.04 131.873 19.55 132.613 18.25C133.353 16.95 134.363 15.95 135.643 15.25C136.923 14.55 138.353 14.2 139.933 14.2C141.513 14.2 142.943 14.55 144.223 15.25C145.503 15.95 146.513 16.95 147.253 18.25C147.993 19.55 148.363 21.04 148.363 22.72C148.363 24.4 147.983 25.89 147.223 27.19C146.463 28.49 145.423 29.5 144.103 30.22C142.803 30.92 141.363 31.27 139.783 31.27ZM139.783 28.3C140.663 28.3 141.483 28.09 142.243 27.67C143.023 27.25 143.653 26.62 144.133 25.78C144.613 24.94 144.853 23.92 144.853 22.72C144.853 21.52 144.623 20.51 144.163 19.69C143.703 18.85 143.093 18.22 142.333 17.8C141.573 17.38 140.753 17.17 139.873 17.17C138.993 17.17 138.173 17.38 137.413 17.8C136.673 18.22 136.083 18.85 135.643 19.69C135.203 20.51 134.983 21.52 134.983 22.72C134.983 24.5 135.433 25.88 136.333 26.86C137.253 27.82 138.403 28.3 139.783 28.3ZM156.364 16.87C156.864 16.03 157.524 15.38 158.344 14.92C159.184 14.44 160.174 14.2 161.314 14.2V17.74H160.444C159.104 17.74 158.084 18.08 157.384 18.76C156.704 19.44 156.364 20.62 156.364 22.3V31H152.944V14.47H156.364V16.87ZM172.197 22.75L179.817 31H175.197L169.077 23.89V31H165.657V8.8H169.077V21.7L175.077 14.47H179.817L172.197 22.75ZM189.469 31.27C188.169 31.27 186.999 31.04 185.959 30.58C184.939 30.1 184.129 29.46 183.529 28.66C182.929 27.84 182.609 26.93 182.569 25.93H186.109C186.169 26.63 186.499 27.22 187.099 27.7C187.719 28.16 188.489 28.39 189.409 28.39C190.369 28.39 191.109 28.21 191.629 27.85C192.169 27.47 192.439 26.99 192.439 26.41C192.439 25.79 192.139 25.33 191.539 25.03C190.959 24.73 190.029 24.4 188.749 24.04C187.509 23.7 186.499 23.37 185.719 23.05C184.939 22.73 184.259 22.24 183.679 21.58C183.119 20.92 182.839 20.05 182.839 18.97C182.839 18.09 183.099 17.29 183.619 16.57C184.139 15.83 184.879 15.25 185.839 14.83C186.819 14.41 187.939 14.2 189.199 14.2C191.079 14.2 192.589 14.68 193.729 15.64C194.889 16.58 195.509 17.87 195.589 19.51H192.169C192.109 18.77 191.809 18.18 191.269 17.74C190.729 17.3 189.999 17.08 189.079 17.08C188.179 17.08 187.489 17.25 187.009 17.59C186.529 17.93 186.289 18.38 186.289 18.94C186.289 19.38 186.449 19.75 186.769 20.05C187.089 20.35 187.479 20.59 187.939 20.77C188.399 20.93 189.079 21.14 189.979 21.4C191.179 21.72 192.159 22.05 192.919 22.39C193.699 22.71 194.369 23.19 194.929 23.83C195.489 24.47 195.779 25.32 195.799 26.38C195.799 27.32 195.539 28.16 195.019 28.9C194.499 29.64 193.759 30.22 192.799 30.64C191.859 31.06 190.749 31.27 189.469 31.27Z" fill="black"/>
<line x1="210" y1="21.5" x2="264" y2="21.5" stroke="#0A4DFA" stroke-width="3"/>
</svg>
