<svg width="231" height="40" viewBox="0 0 231 40" fill="none" xmlns="http://www.w3.org/2000/svg">
<path d="M10.192 29.182C8.51067 29.182 6.95933 28.792 5.538 28.012C4.134 27.2147 3.016 26.114 2.184 24.71C1.36933 23.2887 0.962 21.694 0.962 19.926C0.962 18.158 1.36933 16.572 2.184 15.168C3.016 13.764 4.134 12.672 5.538 11.892C6.95933 11.0947 8.51067 10.696 10.192 10.696C11.8907 10.696 13.442 11.0947 14.846 11.892C16.2673 12.672 17.3853 13.764 18.2 15.168C19.0147 16.572 19.422 18.158 19.422 19.926C19.422 21.694 19.0147 23.2887 18.2 24.71C17.3853 26.114 16.2673 27.2147 14.846 28.012C13.442 28.792 11.8907 29.182 10.192 29.182ZM10.192 26.608C11.388 26.608 12.454 26.3393 13.39 25.802C14.326 25.2473 15.054 24.4673 15.574 23.462C16.1113 22.4393 16.38 21.2607 16.38 19.926C16.38 18.5913 16.1113 17.4213 15.574 16.416C15.054 15.4107 14.326 14.6393 13.39 14.102C12.454 13.5647 11.388 13.296 10.192 13.296C8.996 13.296 7.93 13.5647 6.994 14.102C6.058 14.6393 5.32133 15.4107 4.784 16.416C4.264 17.4213 4.004 18.5913 4.004 19.926C4.004 21.2607 4.264 22.4393 4.784 23.462C5.32133 24.4673 6.058 25.2473 6.994 25.802C7.93 26.3393 8.996 26.608 10.192 26.608ZM26.8367 17.092V25.022C26.8367 25.5593 26.958 25.9493 27.2007 26.192C27.4607 26.4173 27.894 26.53 28.5007 26.53H30.3207V29H27.9807C26.646 29 25.6233 28.688 24.9127 28.064C24.202 27.44 23.8467 26.426 23.8467 25.022V17.092H22.1567V14.674H23.8467V11.112H26.8367V14.674H30.3207V17.092H26.8367ZM41.5025 14.44C42.5945 14.44 43.5652 14.674 44.4145 15.142C45.2812 15.61 45.9572 16.3033 46.4425 17.222C46.9452 18.1407 47.1965 19.25 47.1965 20.55V29H44.2585V20.992C44.2585 19.7093 43.9378 18.73 43.2965 18.054C42.6552 17.3607 41.7798 17.014 40.6705 17.014C39.5612 17.014 38.6772 17.3607 38.0185 18.054C37.3772 18.73 37.0565 19.7093 37.0565 20.992V29H34.0925V9.76H37.0565V16.338C37.5592 15.7313 38.1918 15.2633 38.9545 14.934C39.7345 14.6047 40.5838 14.44 41.5025 14.44ZM65.1473 21.486C65.1473 22.0233 65.1126 22.5087 65.0433 22.942H54.0973C54.1839 24.086 54.6086 25.0047 55.3713 25.698C56.1339 26.3913 57.0699 26.738 58.1793 26.738C59.7739 26.738 60.9006 26.0707 61.5593 24.736H64.7573C64.3239 26.0533 63.5353 27.1367 62.3913 27.986C61.2646 28.818 59.8606 29.234 58.1793 29.234C56.8099 29.234 55.5793 28.9307 54.4873 28.324C53.4126 27.7 52.5633 26.8333 51.9393 25.724C51.3326 24.5973 51.0293 23.2973 51.0293 21.824C51.0293 20.3507 51.3239 19.0593 51.9133 17.95C52.5199 16.8233 53.3606 15.9567 54.4353 15.35C55.5273 14.7433 56.7753 14.44 58.1793 14.44C59.5313 14.44 60.7359 14.7347 61.7933 15.324C62.8506 15.9133 63.6739 16.7453 64.2633 17.82C64.8526 18.8773 65.1473 20.0993 65.1473 21.486ZM62.0533 20.55C62.0359 19.458 61.6459 18.5827 60.8833 17.924C60.1206 17.2653 59.1759 16.936 58.0493 16.936C57.0266 16.936 56.1513 17.2653 55.4233 17.924C54.6953 18.5653 54.2619 19.4407 54.1233 20.55H62.0533ZM72.0681 16.754C72.5015 16.026 73.0735 15.4627 73.7841 15.064C74.5121 14.648 75.3701 14.44 76.3581 14.44V17.508H75.6041C74.4428 17.508 73.5588 17.8027 72.9521 18.392C72.3628 18.9813 72.0681 20.004 72.0681 21.46V29H69.1041V14.674H72.0681V16.754ZM111.447 10.93L106.091 29H102.737L98.9406 15.324L94.9106 29L91.5826 29.026L86.4606 10.93H89.6066L93.3506 25.646L97.4066 10.93H100.735L104.505 25.568L108.275 10.93H111.447ZM121.145 29.234C119.793 29.234 118.571 28.9307 117.479 28.324C116.387 27.7 115.529 26.8333 114.905 25.724C114.281 24.5973 113.969 23.2973 113.969 21.824C113.969 20.368 114.29 19.0767 114.931 17.95C115.573 16.8233 116.448 15.9567 117.557 15.35C118.667 14.7433 119.906 14.44 121.275 14.44C122.645 14.44 123.884 14.7433 124.993 15.35C126.103 15.9567 126.978 16.8233 127.619 17.95C128.261 19.0767 128.581 20.368 128.581 21.824C128.581 23.28 128.252 24.5713 127.593 25.698C126.935 26.8247 126.033 27.7 124.889 28.324C123.763 28.9307 122.515 29.234 121.145 29.234ZM121.145 26.66C121.908 26.66 122.619 26.478 123.277 26.114C123.953 25.75 124.499 25.204 124.915 24.476C125.331 23.748 125.539 22.864 125.539 21.824C125.539 20.784 125.34 19.9087 124.941 19.198C124.543 18.47 124.014 17.924 123.355 17.56C122.697 17.196 121.986 17.014 121.223 17.014C120.461 17.014 119.75 17.196 119.091 17.56C118.45 17.924 117.939 18.47 117.557 19.198C117.176 19.9087 116.985 20.784 116.985 21.824C116.985 23.3667 117.375 24.5627 118.155 25.412C118.953 26.244 119.949 26.66 121.145 26.66ZM135.515 16.754C135.949 16.026 136.521 15.4627 137.231 15.064C137.959 14.648 138.817 14.44 139.805 14.44V17.508H139.051C137.89 17.508 137.006 17.8027 136.399 18.392C135.81 18.9813 135.515 20.004 135.515 21.46V29H132.551V14.674H135.515V16.754ZM149.238 21.85L155.842 29H151.838L146.534 22.838V29H143.57V9.76H146.534V20.94L151.734 14.674H155.842L149.238 21.85ZM164.206 29.234C163.08 29.234 162.066 29.0347 161.164 28.636C160.28 28.22 159.578 27.6653 159.058 26.972C158.538 26.2613 158.261 25.4727 158.226 24.606H161.294C161.346 25.2127 161.632 25.724 162.152 26.14C162.69 26.5387 163.357 26.738 164.154 26.738C164.986 26.738 165.628 26.582 166.078 26.27C166.546 25.9407 166.78 25.5247 166.78 25.022C166.78 24.4847 166.52 24.086 166 23.826C165.498 23.566 164.692 23.28 163.582 22.968C162.508 22.6733 161.632 22.3873 160.956 22.11C160.28 21.8327 159.691 21.408 159.188 20.836C158.703 20.264 158.46 19.51 158.46 18.574C158.46 17.8113 158.686 17.118 159.136 16.494C159.587 15.8527 160.228 15.35 161.06 14.986C161.91 14.622 162.88 14.44 163.972 14.44C165.602 14.44 166.91 14.856 167.898 15.688C168.904 16.5027 169.441 17.6207 169.51 19.042H166.546C166.494 18.4007 166.234 17.8893 165.766 17.508C165.298 17.1267 164.666 16.936 163.868 16.936C163.088 16.936 162.49 17.0833 162.074 17.378C161.658 17.6727 161.45 18.0627 161.45 18.548C161.45 18.9293 161.589 19.25 161.866 19.51C162.144 19.77 162.482 19.978 162.88 20.134C163.279 20.2727 163.868 20.4547 164.648 20.68C165.688 20.9573 166.538 21.2433 167.196 21.538C167.872 21.8153 168.453 22.2313 168.938 22.786C169.424 23.3407 169.675 24.0773 169.692 24.996C169.692 25.8107 169.467 26.5387 169.016 27.18C168.566 27.8213 167.924 28.324 167.092 28.688C166.278 29.052 165.316 29.234 164.206 29.234Z" fill="black"/>
<line x1="177" y1="21.5" x2="231" y2="21.5" stroke="#0A4DFA" stroke-width="3"/>
</svg>
