<svg width="294" height="40" viewBox="0 0 294 40" fill="none" xmlns="http://www.w3.org/2000/svg">
<line x1="240" y1="21.5" x2="294" y2="21.5" stroke="#0A4DFA" stroke-width="3"/>
<path d="M17.524 10.93L10.738 29H7.306L0.494 10.93H3.666L9.022 25.958L14.404 10.93H17.524ZM22.5507 12.776C22.0134 12.776 21.5627 12.594 21.1987 12.23C20.8347 11.866 20.6527 11.4153 20.6527 10.878C20.6527 10.3407 20.8347 9.89 21.1987 9.526C21.5627 9.162 22.0134 8.98 22.5507 8.98C23.0707 8.98 23.5127 9.162 23.8767 9.526C24.2407 9.89 24.4227 10.3407 24.4227 10.878C24.4227 11.4153 24.2407 11.866 23.8767 12.23C23.5127 12.594 23.0707 12.776 22.5507 12.776ZM24.0067 14.674V29H21.0427V14.674H24.0067ZM34.1382 29.234C33.0115 29.234 31.9975 29.0347 31.0962 28.636C30.2122 28.22 29.5102 27.6653 28.9902 26.972C28.4702 26.2613 28.1929 25.4727 28.1582 24.606H31.2262C31.2782 25.2127 31.5642 25.724 32.0842 26.14C32.6215 26.5387 33.2889 26.738 34.0862 26.738C34.9182 26.738 35.5595 26.582 36.0102 26.27C36.4782 25.9407 36.7122 25.5247 36.7122 25.022C36.7122 24.4847 36.4522 24.086 35.9322 23.826C35.4295 23.566 34.6235 23.28 33.5142 22.968C32.4395 22.6733 31.5642 22.3873 30.8882 22.11C30.2122 21.8327 29.6229 21.408 29.1202 20.836C28.6349 20.264 28.3922 19.51 28.3922 18.574C28.3922 17.8113 28.6175 17.118 29.0682 16.494C29.5189 15.8527 30.1602 15.35 30.9922 14.986C31.8415 14.622 32.8122 14.44 33.9042 14.44C35.5335 14.44 36.8422 14.856 37.8302 15.688C38.8355 16.5027 39.3729 17.6207 39.4422 19.042H36.4782C36.4262 18.4007 36.1662 17.8893 35.6982 17.508C35.2302 17.1267 34.5975 16.936 33.8002 16.936C33.0202 16.936 32.4222 17.0833 32.0062 17.378C31.5902 17.6727 31.3822 18.0627 31.3822 18.548C31.3822 18.9293 31.5209 19.25 31.7982 19.51C32.0755 19.77 32.4135 19.978 32.8122 20.134C33.2109 20.2727 33.8002 20.4547 34.5802 20.68C35.6202 20.9573 36.4695 21.2433 37.1282 21.538C37.8042 21.8153 38.3849 22.2313 38.8702 22.786C39.3555 23.3407 39.6069 24.0773 39.6242 24.996C39.6242 25.8107 39.3989 26.5387 38.9482 27.18C38.4975 27.8213 37.8562 28.324 37.0242 28.688C36.2095 29.052 35.2475 29.234 34.1382 29.234ZM56.8409 14.674V29H53.8769V27.31C53.4089 27.8993 52.7935 28.3673 52.0309 28.714C51.2855 29.0433 50.4882 29.208 49.6389 29.208C48.5122 29.208 47.4982 28.974 46.5969 28.506C45.7129 28.038 45.0109 27.3447 44.4909 26.426C43.9882 25.5073 43.7369 24.398 43.7369 23.098V14.674H46.6749V22.656C46.6749 23.9387 46.9955 24.9267 47.6369 25.62C48.2782 26.296 49.1535 26.634 50.2629 26.634C51.3722 26.634 52.2475 26.296 52.8889 25.62C53.5475 24.9267 53.8769 23.9387 53.8769 22.656V14.674H56.8409ZM60.8036 21.772C60.8036 20.3333 61.0983 19.0593 61.6876 17.95C62.2943 16.8407 63.109 15.9827 64.1316 15.376C65.1716 14.752 66.3156 14.44 67.5636 14.44C68.6903 14.44 69.6696 14.6653 70.5016 15.116C71.351 15.5493 72.027 16.0953 72.5296 16.754V14.674H75.5196V29H72.5296V26.868C72.027 27.544 71.3423 28.1073 70.4756 28.558C69.609 29.0087 68.621 29.234 67.5116 29.234C66.281 29.234 65.1543 28.922 64.1316 28.298C63.109 27.6567 62.2943 26.7727 61.6876 25.646C61.0983 24.502 60.8036 23.2107 60.8036 21.772ZM72.5296 21.824C72.5296 20.836 72.3216 19.978 71.9056 19.25C71.507 18.522 70.9783 17.9673 70.3196 17.586C69.661 17.2047 68.9503 17.014 68.1876 17.014C67.425 17.014 66.7143 17.2047 66.0556 17.586C65.397 17.95 64.8596 18.496 64.4436 19.224C64.045 19.9347 63.8456 20.784 63.8456 21.772C63.8456 22.76 64.045 23.6267 64.4436 24.372C64.8596 25.1173 65.397 25.6893 66.0556 26.088C66.7316 26.4693 67.4423 26.66 68.1876 26.66C68.9503 26.66 69.661 26.4693 70.3196 26.088C70.9783 25.7067 71.507 25.152 71.9056 24.424C72.3216 23.6787 72.5296 22.812 72.5296 21.824ZM83.4167 9.76V29H80.4527V9.76H83.4167ZM110.104 29L107.868 26.764C107.001 27.6307 106.057 28.2807 105.034 28.714C104.011 29.13 102.867 29.338 101.602 29.338C100.319 29.338 99.1841 29.1127 98.1961 28.662C97.2081 28.2113 96.4454 27.57 95.9081 26.738C95.3708 25.8887 95.1021 24.9093 95.1021 23.8C95.1021 22.552 95.4574 21.4427 96.1681 20.472C96.8788 19.484 97.9361 18.704 99.3401 18.132C98.8374 17.5253 98.4821 16.962 98.2741 16.442C98.0661 15.9047 97.9621 15.3153 97.9621 14.674C97.9621 13.8767 98.1614 13.166 98.5601 12.542C98.9761 11.918 99.5654 11.424 100.328 11.06C101.091 10.696 101.975 10.514 102.98 10.514C104.003 10.514 104.869 10.7133 105.58 11.112C106.308 11.4933 106.845 12.022 107.192 12.698C107.556 13.374 107.703 14.128 107.634 14.96H104.67C104.687 14.3187 104.531 13.8247 104.202 13.478C103.873 13.114 103.422 12.932 102.85 12.932C102.278 12.932 101.81 13.1053 101.446 13.452C101.099 13.7813 100.926 14.1887 100.926 14.674C100.926 15.142 101.056 15.61 101.316 16.078C101.593 16.5287 102.07 17.118 102.746 17.846L107.53 22.604L109.376 19.562H112.574L110.234 23.566L109.584 24.632L113.978 29H110.104ZM101.602 26.816C103.231 26.816 104.67 26.1487 105.918 24.814L101.134 20.004C99.0888 20.8187 98.0661 22.0493 98.0661 23.696C98.0661 24.58 98.3954 25.3253 99.0541 25.932C99.7128 26.5213 100.562 26.816 101.602 26.816ZM137.833 16.13C137.365 15.2287 136.715 14.5527 135.883 14.102C135.051 13.634 134.089 13.4 132.997 13.4C131.801 13.4 130.735 13.6687 129.799 14.206C128.863 14.7433 128.127 15.506 127.589 16.494C127.069 17.482 126.809 18.626 126.809 19.926C126.809 21.226 127.069 22.3787 127.589 23.384C128.127 24.372 128.863 25.1347 129.799 25.672C130.735 26.2093 131.801 26.478 132.997 26.478C134.609 26.478 135.918 26.0273 136.923 25.126C137.929 24.2247 138.544 23.0027 138.769 21.46H131.983V19.094H141.941V21.408C141.751 22.812 141.248 24.1033 140.433 25.282C139.636 26.4607 138.587 27.4053 137.287 28.116C136.005 28.8093 134.575 29.156 132.997 29.156C131.299 29.156 129.747 28.766 128.343 27.986C126.939 27.1887 125.821 26.088 124.989 24.684C124.175 23.28 123.767 21.694 123.767 19.926C123.767 18.158 124.175 16.572 124.989 15.168C125.821 13.764 126.939 12.672 128.343 11.892C129.765 11.0947 131.316 10.696 132.997 10.696C134.921 10.696 136.629 11.1727 138.119 12.126C139.627 13.062 140.719 14.3967 141.395 16.13H137.833ZM148.869 16.754C149.302 16.026 149.874 15.4627 150.585 15.064C151.313 14.648 152.171 14.44 153.159 14.44V17.508H152.405C151.243 17.508 150.359 17.8027 149.753 18.392C149.163 18.9813 148.869 20.004 148.869 21.46V29H145.905V14.674H148.869V16.754ZM155.935 21.772C155.935 20.3333 156.23 19.0593 156.819 17.95C157.426 16.8407 158.241 15.9827 159.263 15.376C160.303 14.752 161.447 14.44 162.695 14.44C163.822 14.44 164.801 14.6653 165.633 15.116C166.483 15.5493 167.159 16.0953 167.661 16.754V14.674H170.651V29H167.661V26.868C167.159 27.544 166.474 28.1073 165.607 28.558C164.741 29.0087 163.753 29.234 162.643 29.234C161.413 29.234 160.286 28.922 159.263 28.298C158.241 27.6567 157.426 26.7727 156.819 25.646C156.23 24.502 155.935 23.2107 155.935 21.772ZM167.661 21.824C167.661 20.836 167.453 19.978 167.037 19.25C166.639 18.522 166.11 17.9673 165.451 17.586C164.793 17.2047 164.082 17.014 163.319 17.014C162.557 17.014 161.846 17.2047 161.187 17.586C160.529 17.95 159.991 18.496 159.575 19.224C159.177 19.9347 158.977 20.784 158.977 21.772C158.977 22.76 159.177 23.6267 159.575 24.372C159.991 25.1173 160.529 25.6893 161.187 26.088C161.863 26.4693 162.574 26.66 163.319 26.66C164.082 26.66 164.793 26.4693 165.451 26.088C166.11 25.7067 166.639 25.152 167.037 24.424C167.453 23.6787 167.661 22.812 167.661 21.824ZM178.548 16.78C179.051 16.1213 179.736 15.5667 180.602 15.116C181.469 14.6653 182.448 14.44 183.54 14.44C184.788 14.44 185.924 14.752 186.946 15.376C187.986 15.9827 188.801 16.8407 189.39 17.95C189.98 19.0593 190.274 20.3333 190.274 21.772C190.274 23.2107 189.98 24.502 189.39 25.646C188.801 26.7727 187.986 27.6567 186.946 28.298C185.924 28.922 184.788 29.234 183.54 29.234C182.448 29.234 181.478 29.0173 180.628 28.584C179.779 28.1333 179.086 27.5787 178.548 26.92V35.812H175.584V14.674H178.548V16.78ZM187.258 21.772C187.258 20.784 187.05 19.9347 186.634 19.224C186.236 18.496 185.698 17.95 185.022 17.586C184.364 17.2047 183.653 17.014 182.89 17.014C182.145 17.014 181.434 17.2047 180.758 17.586C180.1 17.9673 179.562 18.522 179.146 19.25C178.748 19.978 178.548 20.836 178.548 21.824C178.548 22.812 178.748 23.6787 179.146 24.424C179.562 25.152 180.1 25.7067 180.758 26.088C181.434 26.4693 182.145 26.66 182.89 26.66C183.653 26.66 184.364 26.4693 185.022 26.088C185.698 25.6893 186.236 25.1173 186.634 24.372C187.05 23.6267 187.258 22.76 187.258 21.772ZM201.655 14.44C202.747 14.44 203.718 14.674 204.567 15.142C205.434 15.61 206.11 16.3033 206.595 17.222C207.098 18.1407 207.349 19.25 207.349 20.55V29H204.411V20.992C204.411 19.7093 204.091 18.73 203.449 18.054C202.808 17.3607 201.933 17.014 200.823 17.014C199.714 17.014 198.83 17.3607 198.171 18.054C197.53 18.73 197.209 19.7093 197.209 20.992V29H194.245V9.76H197.209V16.338C197.712 15.7313 198.345 15.2633 199.107 14.934C199.887 14.6047 200.737 14.44 201.655 14.44ZM213.678 12.776C213.141 12.776 212.69 12.594 212.326 12.23C211.962 11.866 211.78 11.4153 211.78 10.878C211.78 10.3407 211.962 9.89 212.326 9.526C212.69 9.162 213.141 8.98 213.678 8.98C214.198 8.98 214.64 9.162 215.004 9.526C215.368 9.89 215.55 10.3407 215.55 10.878C215.55 11.4153 215.368 11.866 215.004 12.23C214.64 12.594 214.198 12.776 213.678 12.776ZM215.134 14.674V29H212.17V14.674H215.134ZM219.078 21.824C219.078 20.3507 219.372 19.0593 219.962 17.95C220.568 16.8233 221.4 15.9567 222.458 15.35C223.515 14.7433 224.728 14.44 226.098 14.44C227.831 14.44 229.261 14.856 230.388 15.688C231.532 16.5027 232.303 17.6727 232.702 19.198H229.504C229.244 18.4873 228.828 17.9327 228.256 17.534C227.684 17.1353 226.964 16.936 226.098 16.936C224.884 16.936 223.914 17.3693 223.186 18.236C222.475 19.0853 222.12 20.2813 222.12 21.824C222.12 23.3667 222.475 24.5713 223.186 25.438C223.914 26.3047 224.884 26.738 226.098 26.738C227.814 26.738 228.949 25.984 229.504 24.476H232.702C232.286 25.932 231.506 27.0933 230.362 27.96C229.218 28.8093 227.796 29.234 226.098 29.234C224.728 29.234 223.515 28.9307 222.458 28.324C221.4 27.7 220.568 26.8333 219.962 25.724C219.372 24.5973 219.078 23.2973 219.078 21.824Z" fill="black"/>
</svg>
