<svg width="336" height="40" viewBox="0 0 336 40" fill="none" xmlns="http://www.w3.org/2000/svg">
<line x1="282" y1="21.5" x2="336" y2="21.5" stroke="#0A4DFA" stroke-width="3"/>
<path d="M20.22 10.15L12.39 31H8.43L0.57 10.15H4.23L10.41 27.49L16.62 10.15H20.22ZM26.0201 12.28C25.4001 12.28 24.8801 12.07 24.4601 11.65C24.0401 11.23 23.8301 10.71 23.8301 10.09C23.8301 9.47 24.0401 8.95 24.4601 8.53C24.8801 8.11 25.4001 7.9 26.0201 7.9C26.6201 7.9 27.1301 8.11 27.5501 8.53C27.9701 8.95 28.1801 9.47 28.1801 10.09C28.1801 10.71 27.9701 11.23 27.5501 11.65C27.1301 12.07 26.6201 12.28 26.0201 12.28ZM27.7001 14.47V31H24.2801V14.47H27.7001ZM39.3902 31.27C38.0902 31.27 36.9202 31.04 35.8802 30.58C34.8602 30.1 34.0502 29.46 33.4502 28.66C32.8502 27.84 32.5302 26.93 32.4902 25.93H36.0302C36.0902 26.63 36.4202 27.22 37.0202 27.7C37.6402 28.16 38.4102 28.39 39.3302 28.39C40.2902 28.39 41.0302 28.21 41.5502 27.85C42.0902 27.47 42.3602 26.99 42.3602 26.41C42.3602 25.79 42.0602 25.33 41.4602 25.03C40.8802 24.73 39.9502 24.4 38.6702 24.04C37.4302 23.7 36.4202 23.37 35.6402 23.05C34.8602 22.73 34.1802 22.24 33.6002 21.58C33.0402 20.92 32.7602 20.05 32.7602 18.97C32.7602 18.09 33.0202 17.29 33.5402 16.57C34.0602 15.83 34.8002 15.25 35.7602 14.83C36.7402 14.41 37.8602 14.2 39.1202 14.2C41.0002 14.2 42.5102 14.68 43.6502 15.64C44.8102 16.58 45.4302 17.87 45.5102 19.51H42.0902C42.0302 18.77 41.7302 18.18 41.1902 17.74C40.6502 17.3 39.9202 17.08 39.0002 17.08C38.1002 17.08 37.4102 17.25 36.9302 17.59C36.4502 17.93 36.2102 18.38 36.2102 18.94C36.2102 19.38 36.3702 19.75 36.6902 20.05C37.0102 20.35 37.4002 20.59 37.8602 20.77C38.3202 20.93 39.0002 21.14 39.9002 21.4C41.1002 21.72 42.0802 22.05 42.8402 22.39C43.6202 22.71 44.2902 23.19 44.8502 23.83C45.4102 24.47 45.7002 25.32 45.7202 26.38C45.7202 27.32 45.4602 28.16 44.9402 28.9C44.4202 29.64 43.6802 30.22 42.7202 30.64C41.7802 31.06 40.6702 31.27 39.3902 31.27ZM65.5856 14.47V31H62.1656V29.05C61.6256 29.73 60.9156 30.27 60.0356 30.67C59.1756 31.05 58.2556 31.24 57.2756 31.24C55.9756 31.24 54.8056 30.97 53.7656 30.43C52.7456 29.89 51.9356 29.09 51.3356 28.03C50.7556 26.97 50.4656 25.69 50.4656 24.19V14.47H53.8556V23.68C53.8556 25.16 54.2256 26.3 54.9656 27.1C55.7056 27.88 56.7156 28.27 57.9956 28.27C59.2756 28.27 60.2856 27.88 61.0256 27.1C61.7856 26.3 62.1656 25.16 62.1656 23.68V14.47H65.5856ZM70.158 22.66C70.158 21 70.498 19.53 71.178 18.25C71.8781 16.97 72.8181 15.98 73.9981 15.28C75.1981 14.56 76.5181 14.2 77.9581 14.2C79.2581 14.2 80.3881 14.46 81.3481 14.98C82.3281 15.48 83.1081 16.11 83.6881 16.87V14.47H87.1381V31H83.6881V28.54C83.1081 29.32 82.3181 29.97 81.3181 30.49C80.3181 31.01 79.1781 31.27 77.8981 31.27C76.4781 31.27 75.1781 30.91 73.9981 30.19C72.8181 29.45 71.8781 28.43 71.178 27.13C70.498 25.81 70.158 24.32 70.158 22.66ZM83.6881 22.72C83.6881 21.58 83.4481 20.59 82.9681 19.75C82.5081 18.91 81.8981 18.27 81.1381 17.83C80.3781 17.39 79.5581 17.17 78.6781 17.17C77.7981 17.17 76.9781 17.39 76.2181 17.83C75.4581 18.25 74.8381 18.88 74.358 19.72C73.8981 20.54 73.6681 21.52 73.6681 22.66C73.6681 23.8 73.8981 24.8 74.358 25.66C74.8381 26.52 75.4581 27.18 76.2181 27.64C76.9981 28.08 77.8181 28.3 78.6781 28.3C79.5581 28.3 80.3781 28.08 81.1381 27.64C81.8981 27.2 82.5081 26.56 82.9681 25.72C83.4481 24.86 83.6881 23.86 83.6881 22.72ZM96.2501 8.8V31H92.8301V8.8H96.2501ZM127.043 31L124.463 28.42C123.463 29.42 122.373 30.17 121.193 30.67C120.013 31.15 118.693 31.39 117.233 31.39C115.753 31.39 114.443 31.13 113.303 30.61C112.163 30.09 111.283 29.35 110.663 28.39C110.043 27.41 109.733 26.28 109.733 25C109.733 23.56 110.143 22.28 110.963 21.16C111.783 20.02 113.003 19.12 114.623 18.46C114.043 17.76 113.633 17.11 113.393 16.51C113.153 15.89 113.033 15.21 113.033 14.47C113.033 13.55 113.263 12.73 113.723 12.01C114.203 11.29 114.883 10.72 115.763 10.3C116.643 9.88 117.663 9.67 118.823 9.67C120.003 9.67 121.003 9.9 121.823 10.36C122.663 10.8 123.283 11.41 123.683 12.19C124.103 12.97 124.273 13.84 124.193 14.8H120.773C120.793 14.06 120.613 13.49 120.233 13.09C119.853 12.67 119.333 12.46 118.673 12.46C118.013 12.46 117.473 12.66 117.053 13.06C116.653 13.44 116.453 13.91 116.453 14.47C116.453 15.01 116.603 15.55 116.903 16.09C117.223 16.61 117.773 17.29 118.553 18.13L124.073 23.62L126.203 20.11H129.893L127.193 24.73L126.443 25.96L131.513 31H127.043ZM117.233 28.48C119.113 28.48 120.773 27.71 122.213 26.17L116.693 20.62C114.333 21.56 113.153 22.98 113.153 24.88C113.153 25.9 113.533 26.76 114.293 27.46C115.053 28.14 116.033 28.48 117.233 28.48ZM159.038 16.15C158.498 15.11 157.748 14.33 156.788 13.81C155.828 13.27 154.718 13 153.458 13C152.078 13 150.848 13.31 149.768 13.93C148.688 14.55 147.838 15.43 147.218 16.57C146.618 17.71 146.318 19.03 146.318 20.53C146.318 22.03 146.618 23.36 147.218 24.52C147.838 25.66 148.688 26.54 149.768 27.16C150.848 27.78 152.078 28.09 153.458 28.09C155.318 28.09 156.828 27.57 157.988 26.53C159.148 25.49 159.858 24.08 160.118 22.3H152.288V19.57H163.778V22.24C163.558 23.86 162.978 25.35 162.038 26.71C161.118 28.07 159.908 29.16 158.408 29.98C156.928 30.78 155.278 31.18 153.458 31.18C151.498 31.18 149.708 30.73 148.088 29.83C146.468 28.91 145.178 27.64 144.218 26.02C143.278 24.4 142.808 22.57 142.808 20.53C142.808 18.49 143.278 16.66 144.218 15.04C145.178 13.42 146.468 12.16 148.088 11.26C149.728 10.34 151.518 9.88 153.458 9.88C155.678 9.88 157.648 10.43 159.368 11.53C161.108 12.61 162.368 14.15 163.148 16.15H159.038ZM171.772 16.87C172.272 16.03 172.932 15.38 173.752 14.92C174.592 14.44 175.582 14.2 176.722 14.2V17.74H175.852C174.512 17.74 173.492 18.08 172.792 18.76C172.112 19.44 171.772 20.62 171.772 22.3V31H168.352V14.47H171.772V16.87ZM179.925 22.66C179.925 21 180.265 19.53 180.945 18.25C181.645 16.97 182.585 15.98 183.765 15.28C184.965 14.56 186.285 14.2 187.725 14.2C189.025 14.2 190.155 14.46 191.115 14.98C192.095 15.48 192.875 16.11 193.455 16.87V14.47H196.905V31H193.455V28.54C192.875 29.32 192.085 29.97 191.085 30.49C190.085 31.01 188.945 31.27 187.665 31.27C186.245 31.27 184.945 30.91 183.765 30.19C182.585 29.45 181.645 28.43 180.945 27.13C180.265 25.81 179.925 24.32 179.925 22.66ZM193.455 22.72C193.455 21.58 193.215 20.59 192.735 19.75C192.275 18.91 191.665 18.27 190.905 17.83C190.145 17.39 189.325 17.17 188.445 17.17C187.565 17.17 186.745 17.39 185.985 17.83C185.225 18.25 184.605 18.88 184.125 19.72C183.665 20.54 183.435 21.52 183.435 22.66C183.435 23.8 183.665 24.8 184.125 25.66C184.605 26.52 185.225 27.18 185.985 27.64C186.765 28.08 187.585 28.3 188.445 28.3C189.325 28.3 190.145 28.08 190.905 27.64C191.665 27.2 192.275 26.56 192.735 25.72C193.215 24.86 193.455 23.86 193.455 22.72ZM206.017 16.9C206.597 16.14 207.387 15.5 208.387 14.98C209.387 14.46 210.517 14.2 211.777 14.2C213.217 14.2 214.527 14.56 215.707 15.28C216.907 15.98 217.847 16.97 218.527 18.25C219.207 19.53 219.547 21 219.547 22.66C219.547 24.32 219.207 25.81 218.527 27.13C217.847 28.43 216.907 29.45 215.707 30.19C214.527 30.91 213.217 31.27 211.777 31.27C210.517 31.27 209.397 31.02 208.417 30.52C207.437 30 206.637 29.36 206.017 28.6V38.86H202.597V14.47H206.017V16.9ZM216.067 22.66C216.067 21.52 215.827 20.54 215.347 19.72C214.887 18.88 214.267 18.25 213.487 17.83C212.727 17.39 211.907 17.17 211.027 17.17C210.167 17.17 209.347 17.39 208.567 17.83C207.807 18.27 207.187 18.91 206.707 19.75C206.247 20.59 206.017 21.58 206.017 22.72C206.017 23.86 206.247 24.86 206.707 25.72C207.187 26.56 207.807 27.2 208.567 27.64C209.347 28.08 210.167 28.3 211.027 28.3C211.907 28.3 212.727 28.08 213.487 27.64C214.267 27.18 214.887 26.52 215.347 25.66C215.827 24.8 216.067 23.8 216.067 22.66ZM232.679 14.2C233.939 14.2 235.059 14.47 236.039 15.01C237.039 15.55 237.819 16.35 238.379 17.41C238.959 18.47 239.249 19.75 239.249 21.25V31H235.859V21.76C235.859 20.28 235.489 19.15 234.749 18.37C234.009 17.57 232.999 17.17 231.719 17.17C230.439 17.17 229.419 17.57 228.659 18.37C227.919 19.15 227.549 20.28 227.549 21.76V31H224.129V8.8H227.549V16.39C228.129 15.69 228.859 15.15 229.739 14.77C230.639 14.39 231.619 14.2 232.679 14.2ZM246.552 12.28C245.932 12.28 245.412 12.07 244.992 11.65C244.572 11.23 244.362 10.71 244.362 10.09C244.362 9.47 244.572 8.95 244.992 8.53C245.412 8.11 245.932 7.9 246.552 7.9C247.152 7.9 247.662 8.11 248.082 8.53C248.502 8.95 248.712 9.47 248.712 10.09C248.712 10.71 248.502 11.23 248.082 11.65C247.662 12.07 247.152 12.28 246.552 12.28ZM248.232 14.47V31H244.812V14.47H248.232ZM252.782 22.72C252.782 21.02 253.122 19.53 253.802 18.25C254.502 16.95 255.462 15.95 256.682 15.25C257.902 14.55 259.302 14.2 260.882 14.2C262.882 14.2 264.532 14.68 265.832 15.64C267.152 16.58 268.042 17.93 268.502 19.69H264.812C264.512 18.87 264.032 18.23 263.372 17.77C262.712 17.31 261.882 17.08 260.882 17.08C259.482 17.08 258.362 17.58 257.522 18.58C256.702 19.56 256.292 20.94 256.292 22.72C256.292 24.5 256.702 25.89 257.522 26.89C258.362 27.89 259.482 28.39 260.882 28.39C262.862 28.39 264.172 27.52 264.812 25.78H268.502C268.022 27.46 267.122 28.8 265.802 29.8C264.482 30.78 262.842 31.27 260.882 31.27C259.302 31.27 257.902 30.92 256.682 30.22C255.462 29.5 254.502 28.5 253.802 27.22C253.122 25.92 252.782 24.42 252.782 22.72Z" fill="black"/>
</svg>
