<svg width="389" height="40" viewBox="0 0 389 40" fill="none" xmlns="http://www.w3.org/2000/svg">
<path d="M29.4 10.15L23.22 31H19.35L14.97 15.22L10.32 31L6.48 31.03L0.57 10.15H4.2L8.52 27.13L13.2 10.15H17.04L21.39 27.04L25.74 10.15H29.4ZM48.5707 22.33C48.5707 22.95 48.5307 23.51 48.4507 24.01H35.8207C35.9207 25.33 36.4107 26.39 37.2907 27.19C38.1707 27.99 39.2507 28.39 40.5307 28.39C42.3707 28.39 43.6707 27.62 44.4307 26.08H48.1207C47.6207 27.6 46.7107 28.85 45.3907 29.83C44.0907 30.79 42.4707 31.27 40.5307 31.27C38.9507 31.27 37.5307 30.92 36.2707 30.22C35.0307 29.5 34.0507 28.5 33.3307 27.22C32.6307 25.92 32.2807 24.42 32.2807 22.72C32.2807 21.02 32.6207 19.53 33.3007 18.25C34.0007 16.95 34.9707 15.95 36.2107 15.25C37.4707 14.55 38.9107 14.2 40.5307 14.2C42.0907 14.2 43.4807 14.54 44.7007 15.22C45.9207 15.9 46.8707 16.86 47.5507 18.1C48.2307 19.32 48.5707 20.73 48.5707 22.33ZM45.0007 21.25C44.9807 19.99 44.5307 18.98 43.6507 18.22C42.7707 17.46 41.6807 17.08 40.3807 17.08C39.2007 17.08 38.1907 17.46 37.3507 18.22C36.5107 18.96 36.0107 19.97 35.8507 21.25H45.0007ZM56.5563 16.93C57.1363 16.13 57.9263 15.48 58.9263 14.98C59.9463 14.46 61.0763 14.2 62.3163 14.2C63.7763 14.2 65.0963 14.55 66.2763 15.25C67.4563 15.95 68.3863 16.95 69.0663 18.25C69.7463 19.53 70.0863 21 70.0863 22.66C70.0863 24.32 69.7463 25.81 69.0663 27.13C68.3863 28.43 67.4463 29.45 66.2463 30.19C65.0663 30.91 63.7563 31.27 62.3163 31.27C61.0363 31.27 59.8963 31.02 58.8963 30.52C57.9163 30.02 57.1363 29.38 56.5563 28.6V31H53.1363V8.8H56.5563V16.93ZM66.6063 22.66C66.6063 21.52 66.3663 20.54 65.8863 19.72C65.4263 18.88 64.8063 18.25 64.0263 17.83C63.2663 17.39 62.4463 17.17 61.5663 17.17C60.7063 17.17 59.8863 17.39 59.1063 17.83C58.3463 18.27 57.7263 18.91 57.2463 19.75C56.7863 20.59 56.5563 21.58 56.5563 22.72C56.5563 23.86 56.7863 24.86 57.2463 25.72C57.7263 26.56 58.3463 27.2 59.1063 27.64C59.8863 28.08 60.7063 28.3 61.5663 28.3C62.4463 28.3 63.2663 28.08 64.0263 27.64C64.8063 27.18 65.4263 26.52 65.8863 25.66C66.3663 24.8 66.6063 23.8 66.6063 22.66ZM80.6684 31.27C79.3684 31.27 78.1984 31.04 77.1584 30.58C76.1384 30.1 75.3284 29.46 74.7284 28.66C74.1284 27.84 73.8084 26.93 73.7684 25.93H77.3084C77.3684 26.63 77.6984 27.22 78.2984 27.7C78.9184 28.16 79.6884 28.39 80.6084 28.39C81.5684 28.39 82.3084 28.21 82.8284 27.85C83.3684 27.47 83.6384 26.99 83.6384 26.41C83.6384 25.79 83.3384 25.33 82.7384 25.03C82.1584 24.73 81.2284 24.4 79.9484 24.04C78.7084 23.7 77.6984 23.37 76.9184 23.05C76.1384 22.73 75.4584 22.24 74.8784 21.58C74.3184 20.92 74.0384 20.05 74.0384 18.97C74.0384 18.09 74.2984 17.29 74.8184 16.57C75.3384 15.83 76.0784 15.25 77.0384 14.83C78.0184 14.41 79.1384 14.2 80.3984 14.2C82.2784 14.2 83.7884 14.68 84.9284 15.64C86.0884 16.58 86.7084 17.87 86.7884 19.51H83.3684C83.3084 18.77 83.0084 18.18 82.4684 17.74C81.9284 17.3 81.1984 17.08 80.2784 17.08C79.3784 17.08 78.6884 17.25 78.2084 17.59C77.7284 17.93 77.4884 18.38 77.4884 18.94C77.4884 19.38 77.6484 19.75 77.9684 20.05C78.2884 20.35 78.6784 20.59 79.1384 20.77C79.5984 20.93 80.2784 21.14 81.1784 21.4C82.3784 21.72 83.3584 22.05 84.1184 22.39C84.8984 22.71 85.5684 23.19 86.1284 23.83C86.6884 24.47 86.9784 25.32 86.9984 26.38C86.9984 27.32 86.7384 28.16 86.2184 28.9C85.6984 29.64 84.9584 30.22 83.9984 30.64C83.0584 31.06 81.9484 31.27 80.6684 31.27ZM93.6338 12.28C93.0138 12.28 92.4938 12.07 92.0738 11.65C91.6538 11.23 91.4438 10.71 91.4438 10.09C91.4438 9.47 91.6538 8.95 92.0738 8.53C92.4938 8.11 93.0138 7.9 93.6338 7.9C94.2338 7.9 94.7438 8.11 95.1638 8.53C95.5838 8.95 95.7938 9.47 95.7938 10.09C95.7938 10.71 95.5838 11.23 95.1638 11.65C94.7438 12.07 94.2338 12.28 93.6338 12.28ZM95.3138 14.47V31H91.8938V14.47H95.3138ZM104.994 17.26V26.41C104.994 27.03 105.134 27.48 105.414 27.76C105.714 28.02 106.214 28.15 106.914 28.15H109.014V31H106.314C104.774 31 103.594 30.64 102.774 29.92C101.954 29.2 101.544 28.03 101.544 26.41V17.26H99.5939V14.47H101.544V10.36H104.994V14.47H109.014V17.26H104.994ZM128.516 22.33C128.516 22.95 128.476 23.51 128.396 24.01H115.766C115.866 25.33 116.356 26.39 117.236 27.19C118.116 27.99 119.196 28.39 120.476 28.39C122.316 28.39 123.616 27.62 124.376 26.08H128.066C127.566 27.6 126.656 28.85 125.336 29.83C124.036 30.79 122.416 31.27 120.476 31.27C118.896 31.27 117.476 30.92 116.216 30.22C114.976 29.5 113.996 28.5 113.276 27.22C112.576 25.92 112.226 24.42 112.226 22.72C112.226 21.02 112.566 19.53 113.246 18.25C113.946 16.95 114.916 15.95 116.156 15.25C117.416 14.55 118.856 14.2 120.476 14.2C122.036 14.2 123.426 14.54 124.646 15.22C125.866 15.9 126.816 16.86 127.496 18.1C128.176 19.32 128.516 20.73 128.516 22.33ZM124.946 21.25C124.926 19.99 124.476 18.98 123.596 18.22C122.716 17.46 121.626 17.08 120.326 17.08C119.146 17.08 118.136 17.46 117.296 18.22C116.456 18.96 115.956 19.97 115.796 21.25H124.946ZM158.185 31L155.605 28.42C154.605 29.42 153.515 30.17 152.335 30.67C151.155 31.15 149.835 31.39 148.375 31.39C146.895 31.39 145.585 31.13 144.445 30.61C143.305 30.09 142.425 29.35 141.805 28.39C141.185 27.41 140.875 26.28 140.875 25C140.875 23.56 141.285 22.28 142.105 21.16C142.925 20.02 144.145 19.12 145.765 18.46C145.185 17.76 144.775 17.11 144.535 16.51C144.295 15.89 144.175 15.21 144.175 14.47C144.175 13.55 144.405 12.73 144.865 12.01C145.345 11.29 146.025 10.72 146.905 10.3C147.785 9.88 148.805 9.67 149.965 9.67C151.145 9.67 152.145 9.9 152.965 10.36C153.805 10.8 154.425 11.41 154.825 12.19C155.245 12.97 155.415 13.84 155.335 14.8H151.915C151.935 14.06 151.755 13.49 151.375 13.09C150.995 12.67 150.475 12.46 149.815 12.46C149.155 12.46 148.615 12.66 148.195 13.06C147.795 13.44 147.595 13.91 147.595 14.47C147.595 15.01 147.745 15.55 148.045 16.09C148.365 16.61 148.915 17.29 149.695 18.13L155.215 23.62L157.345 20.11H161.035L158.335 24.73L157.585 25.96L162.655 31H158.185ZM148.375 28.48C150.255 28.48 151.915 27.71 153.355 26.17L147.835 20.62C145.475 21.56 144.295 22.98 144.295 24.88C144.295 25.9 144.675 26.76 145.435 27.46C146.195 28.14 147.175 28.48 148.375 28.48ZM178.48 10.15V23.44C178.48 25.02 178.89 26.21 179.71 27.01C180.55 27.81 181.71 28.21 183.19 28.21C184.69 28.21 185.85 27.81 186.67 27.01C187.51 26.21 187.93 25.02 187.93 23.44V10.15H191.35V23.38C191.35 25.08 190.98 26.52 190.24 27.7C189.5 28.88 188.51 29.76 187.27 30.34C186.03 30.92 184.66 31.21 183.16 31.21C181.66 31.21 180.29 30.92 179.05 30.34C177.83 29.76 176.86 28.88 176.14 27.7C175.42 26.52 175.06 25.08 175.06 23.38V10.15H178.48ZM200.423 10.15V31H197.003V10.15H200.423ZM221.916 10.15C224.136 10.15 226.076 10.58 227.736 11.44C229.416 12.28 230.706 13.5 231.606 15.1C232.526 16.68 232.986 18.53 232.986 20.65C232.986 22.77 232.526 24.61 231.606 26.17C230.706 27.73 229.416 28.93 227.736 29.77C226.076 30.59 224.136 31 221.916 31H215.106V10.15H221.916ZM221.916 28.21C224.356 28.21 226.226 27.55 227.526 26.23C228.826 24.91 229.476 23.05 229.476 20.65C229.476 18.23 228.826 16.34 227.526 14.98C226.226 13.62 224.356 12.94 221.916 12.94H218.526V28.21H221.916ZM252.725 22.33C252.725 22.95 252.685 23.51 252.605 24.01H239.975C240.075 25.33 240.565 26.39 241.445 27.19C242.325 27.99 243.405 28.39 244.685 28.39C246.525 28.39 247.825 27.62 248.585 26.08H252.275C251.775 27.6 250.865 28.85 249.545 29.83C248.245 30.79 246.625 31.27 244.685 31.27C243.105 31.27 241.685 30.92 240.425 30.22C239.185 29.5 238.205 28.5 237.485 27.22C236.785 25.92 236.435 24.42 236.435 22.72C236.435 21.02 236.775 19.53 237.455 18.25C238.155 16.95 239.125 15.95 240.365 15.25C241.625 14.55 243.065 14.2 244.685 14.2C246.245 14.2 247.635 14.54 248.855 15.22C250.075 15.9 251.025 16.86 251.705 18.1C252.385 19.32 252.725 20.73 252.725 22.33ZM249.155 21.25C249.135 19.99 248.685 18.98 247.805 18.22C246.925 17.46 245.835 17.08 244.535 17.08C243.355 17.08 242.345 17.46 241.505 18.22C240.665 18.96 240.165 19.97 240.005 21.25H249.155ZM263.291 31.27C261.991 31.27 260.821 31.04 259.781 30.58C258.761 30.1 257.951 29.46 257.351 28.66C256.751 27.84 256.431 26.93 256.391 25.93H259.931C259.991 26.63 260.321 27.22 260.921 27.7C261.541 28.16 262.311 28.39 263.231 28.39C264.191 28.39 264.931 28.21 265.451 27.85C265.991 27.47 266.261 26.99 266.261 26.41C266.261 25.79 265.961 25.33 265.361 25.03C264.781 24.73 263.851 24.4 262.571 24.04C261.331 23.7 260.321 23.37 259.541 23.05C258.761 22.73 258.081 22.24 257.501 21.58C256.941 20.92 256.661 20.05 256.661 18.97C256.661 18.09 256.921 17.29 257.441 16.57C257.961 15.83 258.701 15.25 259.661 14.83C260.641 14.41 261.761 14.2 263.021 14.2C264.901 14.2 266.411 14.68 267.551 15.64C268.711 16.58 269.331 17.87 269.411 19.51H265.991C265.931 18.77 265.631 18.18 265.091 17.74C264.551 17.3 263.821 17.08 262.901 17.08C262.001 17.08 261.311 17.25 260.831 17.59C260.351 17.93 260.111 18.38 260.111 18.94C260.111 19.38 260.271 19.75 260.591 20.05C260.911 20.35 261.301 20.59 261.761 20.77C262.221 20.93 262.901 21.14 263.801 21.4C265.001 21.72 265.981 22.05 266.741 22.39C267.521 22.71 268.191 23.19 268.751 23.83C269.311 24.47 269.601 25.32 269.621 26.38C269.621 27.32 269.361 28.16 268.841 28.9C268.321 29.64 267.581 30.22 266.621 30.64C265.681 31.06 264.571 31.27 263.291 31.27ZM276.256 12.28C275.636 12.28 275.116 12.07 274.696 11.65C274.276 11.23 274.066 10.71 274.066 10.09C274.066 9.47 274.276 8.95 274.696 8.53C275.116 8.11 275.636 7.9 276.256 7.9C276.856 7.9 277.366 8.11 277.786 8.53C278.206 8.95 278.416 9.47 278.416 10.09C278.416 10.71 278.206 11.23 277.786 11.65C277.366 12.07 276.856 12.28 276.256 12.28ZM277.936 14.47V31H274.516V14.47H277.936ZM290.287 14.2C291.567 14.2 292.697 14.46 293.677 14.98C294.677 15.48 295.457 16.11 296.017 16.87V14.47H299.467V31.27C299.467 32.79 299.147 34.14 298.507 35.32C297.867 36.52 296.937 37.46 295.717 38.14C294.517 38.82 293.077 39.16 291.397 39.16C289.157 39.16 287.297 38.63 285.817 37.57C284.337 36.53 283.497 35.11 283.297 33.31H286.687C286.947 34.17 287.497 34.86 288.337 35.38C289.197 35.92 290.217 36.19 291.397 36.19C292.777 36.19 293.887 35.77 294.727 34.93C295.587 34.09 296.017 32.87 296.017 31.27V28.51C295.437 29.29 294.647 29.95 293.647 30.49C292.667 31.01 291.547 31.27 290.287 31.27C288.847 31.27 287.527 30.91 286.327 30.19C285.147 29.45 284.207 28.43 283.507 27.13C282.827 25.81 282.487 24.32 282.487 22.66C282.487 21 282.827 19.53 283.507 18.25C284.207 16.97 285.147 15.98 286.327 15.28C287.527 14.56 288.847 14.2 290.287 14.2ZM296.017 22.72C296.017 21.58 295.777 20.59 295.297 19.75C294.837 18.91 294.227 18.27 293.467 17.83C292.707 17.39 291.887 17.17 291.007 17.17C290.127 17.17 289.307 17.39 288.547 17.83C287.787 18.25 287.167 18.88 286.687 19.72C286.227 20.54 285.997 21.52 285.997 22.66C285.997 23.8 286.227 24.8 286.687 25.66C287.167 26.52 287.787 27.18 288.547 27.64C289.327 28.08 290.147 28.3 291.007 28.3C291.887 28.3 292.707 28.08 293.467 27.64C294.227 27.2 294.837 26.56 295.297 25.72C295.777 24.86 296.017 23.86 296.017 22.72ZM313.499 14.2C314.799 14.2 315.959 14.47 316.979 15.01C318.019 15.55 318.829 16.35 319.409 17.41C319.989 18.47 320.279 19.75 320.279 21.25V31H316.889V21.76C316.889 20.28 316.519 19.15 315.779 18.37C315.039 17.57 314.029 17.17 312.749 17.17C311.469 17.17 310.449 17.57 309.689 18.37C308.949 19.15 308.579 20.28 308.579 21.76V31H305.159V14.47H308.579V16.36C309.139 15.68 309.849 15.15 310.709 14.77C311.589 14.39 312.519 14.2 313.499 14.2Z" fill="black"/>
<line x1="335" y1="21.5" x2="389" y2="21.5" stroke="#0A4DFA" stroke-width="3"/>
</svg>
