<svg width="340" height="40" viewBox="0 0 340 40" fill="none" xmlns="http://www.w3.org/2000/svg">
<path d="M25.48 10.93L20.124 29H16.77L12.974 15.324L8.944 29L5.616 29.026L0.494 10.93H3.64L7.384 25.646L11.44 10.93H14.768L18.538 25.568L22.308 10.93H25.48ZM42.0946 21.486C42.0946 22.0233 42.0599 22.5087 41.9906 22.942H31.0446C31.1313 24.086 31.5559 25.0047 32.3186 25.698C33.0813 26.3913 34.0173 26.738 35.1266 26.738C36.7213 26.738 37.8479 26.0707 38.5066 24.736H41.7046C41.2713 26.0533 40.4826 27.1367 39.3386 27.986C38.2119 28.818 36.8079 29.234 35.1266 29.234C33.7573 29.234 32.5266 28.9307 31.4346 28.324C30.3599 27.7 29.5106 26.8333 28.8866 25.724C28.2799 24.5973 27.9766 23.2973 27.9766 21.824C27.9766 20.3507 28.2713 19.0593 28.8606 17.95C29.4673 16.8233 30.3079 15.9567 31.3826 15.35C32.4746 14.7433 33.7226 14.44 35.1266 14.44C36.4786 14.44 37.6833 14.7347 38.7406 15.324C39.7979 15.9133 40.6213 16.7453 41.2106 17.82C41.7999 18.8773 42.0946 20.0993 42.0946 21.486ZM39.0006 20.55C38.9833 19.458 38.5933 18.5827 37.8306 17.924C37.0679 17.2653 36.1233 16.936 34.9966 16.936C33.9739 16.936 33.0986 17.2653 32.3706 17.924C31.6426 18.5653 31.2093 19.4407 31.0706 20.55H39.0006ZM49.0155 16.806C49.5182 16.1127 50.2028 15.5493 51.0695 15.116C51.9535 14.6653 52.9328 14.44 54.0075 14.44C55.2728 14.44 56.4168 14.7433 57.4395 15.35C58.4622 15.9567 59.2682 16.8233 59.8575 17.95C60.4468 19.0593 60.7415 20.3333 60.7415 21.772C60.7415 23.2107 60.4468 24.502 59.8575 25.646C59.2682 26.7727 58.4535 27.6567 57.4135 28.298C56.3908 28.922 55.2555 29.234 54.0075 29.234C52.8982 29.234 51.9102 29.0173 51.0435 28.584C50.1942 28.1507 49.5182 27.596 49.0155 26.92V29H46.0515V9.76H49.0155V16.806ZM57.7255 21.772C57.7255 20.784 57.5175 19.9347 57.1015 19.224C56.7028 18.496 56.1655 17.95 55.4895 17.586C54.8308 17.2047 54.1202 17.014 53.3575 17.014C52.6122 17.014 51.9015 17.2047 51.2255 17.586C50.5668 17.9673 50.0295 18.522 49.6135 19.25C49.2148 19.978 49.0155 20.836 49.0155 21.824C49.0155 22.812 49.2148 23.6787 49.6135 24.424C50.0295 25.152 50.5668 25.7067 51.2255 26.088C51.9015 26.4693 52.6122 26.66 53.3575 26.66C54.1202 26.66 54.8308 26.4693 55.4895 26.088C56.1655 25.6893 56.7028 25.1173 57.1015 24.372C57.5175 23.6267 57.7255 22.76 57.7255 21.772ZM69.9126 29.234C68.7859 29.234 67.7719 29.0347 66.8706 28.636C65.9866 28.22 65.2846 27.6653 64.7646 26.972C64.2446 26.2613 63.9672 25.4727 63.9326 24.606H67.0006C67.0526 25.2127 67.3386 25.724 67.8586 26.14C68.3959 26.5387 69.0632 26.738 69.8606 26.738C70.6926 26.738 71.3339 26.582 71.7846 26.27C72.2526 25.9407 72.4866 25.5247 72.4866 25.022C72.4866 24.4847 72.2266 24.086 71.7066 23.826C71.2039 23.566 70.3979 23.28 69.2886 22.968C68.2139 22.6733 67.3386 22.3873 66.6626 22.11C65.9866 21.8327 65.3972 21.408 64.8946 20.836C64.4092 20.264 64.1666 19.51 64.1666 18.574C64.1666 17.8113 64.3919 17.118 64.8426 16.494C65.2932 15.8527 65.9346 15.35 66.7666 14.986C67.6159 14.622 68.5866 14.44 69.6786 14.44C71.3079 14.44 72.6166 14.856 73.6046 15.688C74.6099 16.5027 75.1472 17.6207 75.2166 19.042H72.2526C72.2006 18.4007 71.9406 17.8893 71.4726 17.508C71.0046 17.1267 70.3719 16.936 69.5746 16.936C68.7946 16.936 68.1966 17.0833 67.7806 17.378C67.3646 17.6727 67.1566 18.0627 67.1566 18.548C67.1566 18.9293 67.2952 19.25 67.5726 19.51C67.8499 19.77 68.1879 19.978 68.5866 20.134C68.9852 20.2727 69.5746 20.4547 70.3546 20.68C71.3946 20.9573 72.2439 21.2433 72.9026 21.538C73.5786 21.8153 74.1592 22.2313 74.6446 22.786C75.1299 23.3407 75.3812 24.0773 75.3986 24.996C75.3986 25.8107 75.1732 26.5387 74.7226 27.18C74.2719 27.8213 73.6306 28.324 72.7986 28.688C71.9839 29.052 71.0219 29.234 69.9126 29.234ZM81.1493 12.776C80.6119 12.776 80.1613 12.594 79.7973 12.23C79.4333 11.866 79.2513 11.4153 79.2513 10.878C79.2513 10.3407 79.4333 9.89 79.7973 9.526C80.1613 9.162 80.6119 8.98 81.1493 8.98C81.6693 8.98 82.1113 9.162 82.4753 9.526C82.8393 9.89 83.0213 10.3407 83.0213 10.878C83.0213 11.4153 82.8393 11.866 82.4753 12.23C82.1113 12.594 81.6693 12.776 81.1493 12.776ZM82.6053 14.674V29H79.6413V14.674H82.6053ZM90.9947 17.092V25.022C90.9947 25.5593 91.116 25.9493 91.3587 26.192C91.6187 26.4173 92.052 26.53 92.6587 26.53H94.4787V29H92.1387C90.804 29 89.7814 28.688 89.0707 28.064C88.36 27.44 88.0047 26.426 88.0047 25.022V17.092H86.3147V14.674H88.0047V11.112H90.9947V14.674H94.4787V17.092H90.9947ZM111.381 21.486C111.381 22.0233 111.346 22.5087 111.277 22.942H100.331C100.417 24.086 100.842 25.0047 101.605 25.698C102.367 26.3913 103.303 26.738 104.413 26.738C106.007 26.738 107.134 26.0707 107.793 24.736H110.991C110.557 26.0533 109.769 27.1367 108.625 27.986C107.498 28.818 106.094 29.234 104.413 29.234C103.043 29.234 101.813 28.9307 100.721 28.324C99.6459 27.7 98.7965 26.8333 98.1725 25.724C97.5659 24.5973 97.2625 23.2973 97.2625 21.824C97.2625 20.3507 97.5572 19.0593 98.1465 17.95C98.7532 16.8233 99.5939 15.9567 100.669 15.35C101.761 14.7433 103.009 14.44 104.413 14.44C105.765 14.44 106.969 14.7347 108.027 15.324C109.084 15.9133 109.907 16.7453 110.497 17.82C111.086 18.8773 111.381 20.0993 111.381 21.486ZM108.287 20.55C108.269 19.458 107.879 18.5827 107.117 17.924C106.354 17.2653 105.409 16.936 104.283 16.936C103.26 16.936 102.385 17.2653 101.657 17.924C100.929 18.5653 100.495 19.4407 100.357 20.55H108.287ZM137.093 29L134.857 26.764C133.991 27.6307 133.046 28.2807 132.023 28.714C131.001 29.13 129.857 29.338 128.591 29.338C127.309 29.338 126.173 29.1127 125.185 28.662C124.197 28.2113 123.435 27.57 122.897 26.738C122.36 25.8887 122.091 24.9093 122.091 23.8C122.091 22.552 122.447 21.4427 123.157 20.472C123.868 19.484 124.925 18.704 126.329 18.132C125.827 17.5253 125.471 16.962 125.263 16.442C125.055 15.9047 124.951 15.3153 124.951 14.674C124.951 13.8767 125.151 13.166 125.549 12.542C125.965 11.918 126.555 11.424 127.317 11.06C128.08 10.696 128.964 10.514 129.969 10.514C130.992 10.514 131.859 10.7133 132.569 11.112C133.297 11.4933 133.835 12.022 134.181 12.698C134.545 13.374 134.693 14.128 134.623 14.96H131.659C131.677 14.3187 131.521 13.8247 131.191 13.478C130.862 13.114 130.411 12.932 129.839 12.932C129.267 12.932 128.799 13.1053 128.435 13.452C128.089 13.7813 127.915 14.1887 127.915 14.674C127.915 15.142 128.045 15.61 128.305 16.078C128.583 16.5287 129.059 17.118 129.735 17.846L134.519 22.604L136.365 19.562H139.563L137.223 23.566L136.573 24.632L140.967 29H137.093ZM128.591 26.816C130.221 26.816 131.659 26.1487 132.907 24.814L128.123 20.004C126.078 20.8187 125.055 22.0493 125.055 23.696C125.055 24.58 125.385 25.3253 126.043 25.932C126.702 26.5213 127.551 26.816 128.591 26.816ZM154.683 10.93V22.448C154.683 23.8173 155.038 24.8487 155.749 25.542C156.477 26.2353 157.482 26.582 158.765 26.582C160.065 26.582 161.07 26.2353 161.781 25.542C162.509 24.8487 162.873 23.8173 162.873 22.448V10.93H165.837V22.396C165.837 23.8693 165.516 25.1173 164.875 26.14C164.233 27.1627 163.375 27.9253 162.301 28.428C161.226 28.9307 160.039 29.182 158.739 29.182C157.439 29.182 156.251 28.9307 155.177 28.428C154.119 27.9253 153.279 27.1627 152.655 26.14C152.031 25.1173 151.719 23.8693 151.719 22.396V10.93H154.683ZM173.7 10.93V29H170.736V10.93H173.7ZM192.327 10.93C194.251 10.93 195.932 11.3027 197.371 12.048C198.827 12.776 199.945 13.8333 200.725 15.22C201.522 16.5893 201.921 18.1927 201.921 20.03C201.921 21.8673 201.522 23.462 200.725 24.814C199.945 26.166 198.827 27.206 197.371 27.934C195.932 28.6447 194.251 29 192.327 29H186.425V10.93H192.327ZM192.327 26.582C194.442 26.582 196.062 26.01 197.189 24.866C198.316 23.722 198.879 22.11 198.879 20.03C198.879 17.9327 198.316 16.2947 197.189 15.116C196.062 13.9373 194.442 13.348 192.327 13.348H189.389V26.582H192.327ZM219.029 21.486C219.029 22.0233 218.994 22.5087 218.925 22.942H207.979C208.065 24.086 208.49 25.0047 209.253 25.698C210.015 26.3913 210.951 26.738 212.061 26.738C213.655 26.738 214.782 26.0707 215.441 24.736H218.639C218.205 26.0533 217.417 27.1367 216.273 27.986C215.146 28.818 213.742 29.234 212.061 29.234C210.691 29.234 209.461 28.9307 208.369 28.324C207.294 27.7 206.445 26.8333 205.821 25.724C205.214 24.5973 204.911 23.2973 204.911 21.824C204.911 20.3507 205.205 19.0593 205.795 17.95C206.401 16.8233 207.242 15.9567 208.317 15.35C209.409 14.7433 210.657 14.44 212.061 14.44C213.413 14.44 214.617 14.7347 215.675 15.324C216.732 15.9133 217.555 16.7453 218.145 17.82C218.734 18.8773 219.029 20.0993 219.029 21.486ZM215.935 20.55C215.917 19.458 215.527 18.5827 214.765 17.924C214.002 17.2653 213.057 16.936 211.931 16.936C210.908 16.936 210.033 17.2653 209.305 17.924C208.577 18.5653 208.143 19.4407 208.005 20.55H215.935ZM228.186 29.234C227.059 29.234 226.045 29.0347 225.144 28.636C224.26 28.22 223.558 27.6653 223.038 26.972C222.518 26.2613 222.24 25.4727 222.206 24.606H225.274C225.326 25.2127 225.612 25.724 226.132 26.14C226.669 26.5387 227.336 26.738 228.134 26.738C228.966 26.738 229.607 26.582 230.058 26.27C230.526 25.9407 230.76 25.5247 230.76 25.022C230.76 24.4847 230.5 24.086 229.98 23.826C229.477 23.566 228.671 23.28 227.562 22.968C226.487 22.6733 225.612 22.3873 224.936 22.11C224.26 21.8327 223.67 21.408 223.168 20.836C222.682 20.264 222.44 19.51 222.44 18.574C222.44 17.8113 222.665 17.118 223.116 16.494C223.566 15.8527 224.208 15.35 225.04 14.986C225.889 14.622 226.86 14.44 227.952 14.44C229.581 14.44 230.89 14.856 231.878 15.688C232.883 16.5027 233.42 17.6207 233.49 19.042H230.526C230.474 18.4007 230.214 17.8893 229.746 17.508C229.278 17.1267 228.645 16.936 227.848 16.936C227.068 16.936 226.47 17.0833 226.054 17.378C225.638 17.6727 225.43 18.0627 225.43 18.548C225.43 18.9293 225.568 19.25 225.846 19.51C226.123 19.77 226.461 19.978 226.86 20.134C227.258 20.2727 227.848 20.4547 228.628 20.68C229.668 20.9573 230.517 21.2433 231.176 21.538C231.852 21.8153 232.432 22.2313 232.918 22.786C233.403 23.3407 233.654 24.0773 233.672 24.996C233.672 25.8107 233.446 26.5387 232.996 27.18C232.545 27.8213 231.904 28.324 231.072 28.688C230.257 29.052 229.295 29.234 228.186 29.234ZM239.422 12.776C238.885 12.776 238.434 12.594 238.07 12.23C237.706 11.866 237.524 11.4153 237.524 10.878C237.524 10.3407 237.706 9.89 238.07 9.526C238.434 9.162 238.885 8.98 239.422 8.98C239.942 8.98 240.384 9.162 240.748 9.526C241.112 9.89 241.294 10.3407 241.294 10.878C241.294 11.4153 241.112 11.866 240.748 12.23C240.384 12.594 239.942 12.776 239.422 12.776ZM240.878 14.674V29H237.914V14.674H240.878ZM251.582 14.44C252.691 14.44 253.67 14.6653 254.52 15.116C255.386 15.5493 256.062 16.0953 256.548 16.754V14.674H259.538V29.234C259.538 30.5513 259.26 31.7213 258.706 32.744C258.151 33.784 257.345 34.5987 256.288 35.188C255.248 35.7773 254 36.072 252.544 36.072C250.602 36.072 248.99 35.6127 247.708 34.694C246.425 33.7927 245.697 32.562 245.524 31.002H248.462C248.687 31.7473 249.164 32.3453 249.892 32.796C250.637 33.264 251.521 33.498 252.544 33.498C253.74 33.498 254.702 33.134 255.43 32.406C256.175 31.678 256.548 30.6207 256.548 29.234V26.842C256.045 27.518 255.36 28.09 254.494 28.558C253.644 29.0087 252.674 29.234 251.582 29.234C250.334 29.234 249.19 28.922 248.15 28.298C247.127 27.6567 246.312 26.7727 245.706 25.646C245.116 24.502 244.822 23.2107 244.822 21.772C244.822 20.3333 245.116 19.0593 245.706 17.95C246.312 16.8407 247.127 15.9827 248.15 15.376C249.19 14.752 250.334 14.44 251.582 14.44ZM256.548 21.824C256.548 20.836 256.34 19.978 255.924 19.25C255.525 18.522 254.996 17.9673 254.338 17.586C253.679 17.2047 252.968 17.014 252.206 17.014C251.443 17.014 250.732 17.2047 250.074 17.586C249.415 17.95 248.878 18.496 248.462 19.224C248.063 19.9347 247.864 20.784 247.864 21.772C247.864 22.76 248.063 23.6267 248.462 24.372C248.878 25.1173 249.415 25.6893 250.074 26.088C250.75 26.4693 251.46 26.66 252.206 26.66C252.968 26.66 253.679 26.4693 254.338 26.088C254.996 25.7067 255.525 25.152 255.924 24.424C256.34 23.6787 256.548 22.812 256.548 21.824ZM271.699 14.44C272.825 14.44 273.831 14.674 274.715 15.142C275.616 15.61 276.318 16.3033 276.821 17.222C277.323 18.1407 277.575 19.25 277.575 20.55V29H274.637V20.992C274.637 19.7093 274.316 18.73 273.675 18.054C273.033 17.3607 272.158 17.014 271.049 17.014C269.939 17.014 269.055 17.3607 268.397 18.054C267.755 18.73 267.435 19.7093 267.435 20.992V29H264.471V14.674H267.435V16.312C267.92 15.7227 268.535 15.2633 269.281 14.934C270.043 14.6047 270.849 14.44 271.699 14.44Z" fill="black"/>
<line x1="286" y1="21.5" x2="340" y2="21.5" stroke="#0A4DFA" stroke-width="3"/>
</svg>
