<svg width="243" height="40" viewBox="0 0 243 40" fill="none" xmlns="http://www.w3.org/2000/svg">
<line x1="189" y1="21.5" x2="243" y2="21.5" stroke="#0A4DFA" stroke-width="3"/>
<path d="M19.6 13.1L15.48 27H12.9L9.98 16.48L6.88 27L4.32 27.02L0.38 13.1H2.8L5.68 24.42L8.8 13.1H11.36L14.26 24.36L17.16 13.1H19.6ZM27.0605 27.18C26.0205 27.18 25.0805 26.9467 24.2405 26.48C23.4005 26 22.7405 25.3333 22.2605 24.48C21.7805 23.6133 21.5405 22.6133 21.5405 21.48C21.5405 20.36 21.7871 19.3667 22.2805 18.5C22.7738 17.6333 23.4471 16.9667 24.3005 16.5C25.1538 16.0333 26.1071 15.8 27.1605 15.8C28.2138 15.8 29.1671 16.0333 30.0205 16.5C30.8738 16.9667 31.5471 17.6333 32.0405 18.5C32.5338 19.3667 32.7805 20.36 32.7805 21.48C32.7805 22.6 32.5271 23.5933 32.0205 24.46C31.5138 25.3267 30.8205 26 29.9405 26.48C29.0738 26.9467 28.1138 27.18 27.0605 27.18ZM27.0605 25.2C27.6471 25.2 28.1938 25.06 28.7005 24.78C29.2205 24.5 29.6405 24.08 29.9605 23.52C30.2805 22.96 30.4405 22.28 30.4405 21.48C30.4405 20.68 30.2871 20.0067 29.9805 19.46C29.6738 18.9 29.2671 18.48 28.7605 18.2C28.2538 17.92 27.7071 17.78 27.1205 17.78C26.5338 17.78 25.9871 17.92 25.4805 18.2C24.9871 18.48 24.5938 18.9 24.3005 19.46C24.0071 20.0067 23.8605 20.68 23.8605 21.48C23.8605 22.6667 24.1605 23.5867 24.7605 24.24C25.3738 24.88 26.1405 25.2 27.0605 25.2ZM38.1144 17.58C38.4477 17.02 38.8877 16.5867 39.4344 16.28C39.9944 15.96 40.6544 15.8 41.4144 15.8V18.16H40.8344C39.941 18.16 39.261 18.3867 38.7944 18.84C38.341 19.2933 38.1144 20.08 38.1144 21.2V27H35.8344V15.98H38.1144V17.58ZM48.6702 21.5L53.7502 27H50.6702L46.5902 22.26V27H44.3102V12.2H46.5902V20.8L50.5902 15.98H53.7502L48.6702 21.5ZM64.4597 14.94V19.02H69.2597V20.88H64.4597V25.14H69.8597V27H62.1797V13.08H69.8597V14.94H64.4597ZM78.188 21.42L81.748 27H79.168L76.788 23.26L74.548 27H72.168L75.728 21.58L72.168 15.98H74.748L77.128 19.72L79.368 15.98H81.748L78.188 21.42ZM86.5284 17.6C86.9151 17.0933 87.4418 16.6667 88.1084 16.32C88.7751 15.9733 89.5284 15.8 90.3684 15.8C91.3284 15.8 92.2018 16.04 92.9884 16.52C93.7884 16.9867 94.4151 17.6467 94.8684 18.5C95.3218 19.3533 95.5484 20.3333 95.5484 21.44C95.5484 22.5467 95.3218 23.54 94.8684 24.42C94.4151 25.2867 93.7884 25.9667 92.9884 26.46C92.2018 26.94 91.3284 27.18 90.3684 27.18C89.5284 27.18 88.7818 27.0133 88.1284 26.68C87.4751 26.3333 86.9418 25.9067 86.5284 25.4V32.24H84.2484V15.98H86.5284V17.6ZM93.2284 21.44C93.2284 20.68 93.0684 20.0267 92.7484 19.48C92.4418 18.92 92.0284 18.5 91.5084 18.22C91.0018 17.9267 90.4551 17.78 89.8684 17.78C89.2951 17.78 88.7484 17.9267 88.2284 18.22C87.7218 18.5133 87.3084 18.94 86.9884 19.5C86.6818 20.06 86.5284 20.72 86.5284 21.48C86.5284 22.24 86.6818 22.9067 86.9884 23.48C87.3084 24.04 87.7218 24.4667 88.2284 24.76C88.7484 25.0533 89.2951 25.2 89.8684 25.2C90.4551 25.2 91.0018 25.0533 91.5084 24.76C92.0284 24.4533 92.4418 24.0133 92.7484 23.44C93.0684 22.8667 93.2284 22.2 93.2284 21.44ZM108.703 21.22C108.703 21.6333 108.676 22.0067 108.623 22.34H100.203C100.27 23.22 100.596 23.9267 101.183 24.46C101.77 24.9933 102.49 25.26 103.343 25.26C104.57 25.26 105.436 24.7467 105.943 23.72H108.403C108.07 24.7333 107.463 25.5667 106.583 26.22C105.716 26.86 104.636 27.18 103.343 27.18C102.29 27.18 101.343 26.9467 100.503 26.48C99.6765 26 99.0231 25.3333 98.5431 24.48C98.0765 23.6133 97.8431 22.6133 97.8431 21.48C97.8431 20.3467 98.0698 19.3533 98.5231 18.5C98.9898 17.6333 99.6365 16.9667 100.463 16.5C101.303 16.0333 102.263 15.8 103.343 15.8C104.383 15.8 105.31 16.0267 106.123 16.48C106.936 16.9333 107.57 17.5733 108.023 18.4C108.476 19.2133 108.703 20.1533 108.703 21.22ZM106.323 20.5C106.31 19.66 106.01 18.9867 105.423 18.48C104.836 17.9733 104.11 17.72 103.243 17.72C102.456 17.72 101.783 17.9733 101.223 18.48C100.663 18.9733 100.33 19.6467 100.223 20.5H106.323ZM114.027 17.58C114.36 17.02 114.8 16.5867 115.347 16.28C115.907 15.96 116.567 15.8 117.327 15.8V18.16H116.747C115.854 18.16 115.174 18.3867 114.707 18.84C114.254 19.2933 114.027 20.08 114.027 21.2V27H111.747V15.98H114.027V17.58ZM121.383 14.52C120.969 14.52 120.623 14.38 120.343 14.1C120.063 13.82 119.923 13.4733 119.923 13.06C119.923 12.6467 120.063 12.3 120.343 12.02C120.623 11.74 120.969 11.6 121.383 11.6C121.783 11.6 122.123 11.74 122.403 12.02C122.683 12.3 122.823 12.6467 122.823 13.06C122.823 13.4733 122.683 13.82 122.403 14.1C122.123 14.38 121.783 14.52 121.383 14.52ZM122.503 15.98V27H120.223V15.98H122.503ZM136.396 21.22C136.396 21.6333 136.369 22.0067 136.316 22.34H127.896C127.963 23.22 128.289 23.9267 128.876 24.46C129.463 24.9933 130.183 25.26 131.036 25.26C132.263 25.26 133.129 24.7467 133.636 23.72H136.096C135.763 24.7333 135.156 25.5667 134.276 26.22C133.409 26.86 132.329 27.18 131.036 27.18C129.983 27.18 129.036 26.9467 128.196 26.48C127.369 26 126.716 25.3333 126.236 24.48C125.769 23.6133 125.536 22.6133 125.536 21.48C125.536 20.3467 125.763 19.3533 126.216 18.5C126.683 17.6333 127.329 16.9667 128.156 16.5C128.996 16.0333 129.956 15.8 131.036 15.8C132.076 15.8 133.003 16.0267 133.816 16.48C134.629 16.9333 135.263 17.5733 135.716 18.4C136.169 19.2133 136.396 20.1533 136.396 21.22ZM134.016 20.5C134.003 19.66 133.703 18.9867 133.116 18.48C132.529 17.9733 131.803 17.72 130.936 17.72C130.149 17.72 129.476 17.9733 128.916 18.48C128.356 18.9733 128.023 19.6467 127.916 20.5H134.016ZM145 15.8C145.867 15.8 146.64 15.98 147.32 16.34C148.013 16.7 148.553 17.2333 148.94 17.94C149.327 18.6467 149.52 19.5 149.52 20.5V27H147.26V20.84C147.26 19.8533 147.013 19.1 146.52 18.58C146.027 18.0467 145.353 17.78 144.5 17.78C143.647 17.78 142.967 18.0467 142.46 18.58C141.967 19.1 141.72 19.8533 141.72 20.84V27H139.44V15.98H141.72V17.24C142.093 16.7867 142.567 16.4333 143.14 16.18C143.727 15.9267 144.347 15.8 145 15.8ZM152.468 21.48C152.468 20.3467 152.695 19.3533 153.148 18.5C153.615 17.6333 154.255 16.9667 155.068 16.5C155.881 16.0333 156.815 15.8 157.868 15.8C159.201 15.8 160.301 16.12 161.168 16.76C162.048 17.3867 162.641 18.2867 162.948 19.46H160.488C160.288 18.9133 159.968 18.4867 159.528 18.18C159.088 17.8733 158.535 17.72 157.868 17.72C156.935 17.72 156.188 18.0533 155.628 18.72C155.081 19.3733 154.808 20.2933 154.808 21.48C154.808 22.6667 155.081 23.5933 155.628 24.26C156.188 24.9267 156.935 25.26 157.868 25.26C159.188 25.26 160.061 24.68 160.488 23.52H162.948C162.628 24.64 162.028 25.5333 161.148 26.2C160.268 26.8533 159.175 27.18 157.868 27.18C156.815 27.18 155.881 26.9467 155.068 26.48C154.255 26 153.615 25.3333 153.148 24.48C152.695 23.6133 152.468 22.6133 152.468 21.48ZM176.12 21.22C176.12 21.6333 176.094 22.0067 176.04 22.34H167.62C167.687 23.22 168.014 23.9267 168.6 24.46C169.187 24.9933 169.907 25.26 170.76 25.26C171.987 25.26 172.854 24.7467 173.36 23.72H175.82C175.487 24.7333 174.88 25.5667 174 26.22C173.134 26.86 172.054 27.18 170.76 27.18C169.707 27.18 168.76 26.9467 167.92 26.48C167.094 26 166.44 25.3333 165.96 24.48C165.494 23.6133 165.26 22.6133 165.26 21.48C165.26 20.3467 165.487 19.3533 165.94 18.5C166.407 17.6333 167.054 16.9667 167.88 16.5C168.72 16.0333 169.68 15.8 170.76 15.8C171.8 15.8 172.727 16.0267 173.54 16.48C174.354 16.9333 174.987 17.5733 175.44 18.4C175.894 19.2133 176.12 20.1533 176.12 21.22ZM173.74 20.5C173.727 19.66 173.427 18.9867 172.84 18.48C172.254 17.9733 171.527 17.72 170.66 17.72C169.874 17.72 169.2 17.9733 168.64 18.48C168.08 18.9733 167.747 19.6467 167.64 20.5H173.74Z" fill="black"/>
</svg>
